<svg xmlns="http://www.w3.org/2000/svg" xmlns:xlink="http://www.w3.org/1999/xlink" version="1.1" width="800" height="800"><defs/><g transform="scale(2,2)"><g id="background-39144df4"><rect fill="white" stroke="none" x="0" y="0" width="400" height="400" class="dcg-svg-background"/></g><g id="background-images-39144df4"/><g id="graphpaper-39144df4"><g id="grid-39144df4"><g><path fill="none" stroke="rgb(0,0,0)" class="dcg-svg-minor-gridline" paint-order="fill stroke markers" d=" M 26.5 0 L 26.5 400" stroke-opacity="0.5" stroke-miterlimit="10" stroke-dasharray=""/><path fill="none" stroke="rgb(0,0,0)" class="dcg-svg-minor-gridline" paint-order="fill stroke markers" d=" M 53.5 0 L 53.5 400" stroke-opacity="0.5" stroke-miterlimit="10" stroke-dasharray=""/><path fill="none" stroke="rgb(0,0,0)" class="dcg-svg-minor-gridline" paint-order="fill stroke markers" d=" M 79.5 0 L 79.5 400" stroke-opacity="0.5" stroke-miterlimit="10" stroke-dasharray=""/><path fill="none" stroke="rgb(0,0,0)" class="dcg-svg-minor-gridline" paint-order="fill stroke markers" d=" M 105.5 0 L 105.5 400" stroke-opacity="0.5" stroke-miterlimit="10" stroke-dasharray=""/><path fill="none" stroke="rgb(0,0,0)" class="dcg-svg-minor-gridline" paint-order="fill stroke markers" d=" M 157.5 0 L 157.5 400" stroke-opacity="0.5" stroke-miterlimit="10" stroke-dasharray=""/><path fill="none" stroke="rgb(0,0,0)" class="dcg-svg-minor-gridline" paint-order="fill stroke markers" d=" M 183.5 0 L 183.5 400" stroke-opacity="0.5" stroke-miterlimit="10" stroke-dasharray=""/><path fill="none" stroke="rgb(0,0,0)" class="dcg-svg-minor-gridline" paint-order="fill stroke markers" d=" M 210.5 0 L 210.5 400" stroke-opacity="0.5" stroke-miterlimit="10" stroke-dasharray=""/><path fill="none" stroke="rgb(0,0,0)" class="dcg-svg-minor-gridline" paint-order="fill stroke markers" d=" M 236.5 0 L 236.5 400" stroke-opacity="0.5" stroke-miterlimit="10" stroke-dasharray=""/><path fill="none" stroke="rgb(0,0,0)" class="dcg-svg-minor-gridline" paint-order="fill stroke markers" d=" M 262.5 0 L 262.5 400" stroke-opacity="0.5" stroke-miterlimit="10" stroke-dasharray=""/><path fill="none" stroke="rgb(0,0,0)" class="dcg-svg-minor-gridline" paint-order="fill stroke markers" d=" M 288.5 0 L 288.5 400" stroke-opacity="0.5" stroke-miterlimit="10" stroke-dasharray=""/><path fill="none" stroke="rgb(0,0,0)" class="dcg-svg-minor-gridline" paint-order="fill stroke markers" d=" M 314.5 0 L 314.5 400" stroke-opacity="0.5" stroke-miterlimit="10" stroke-dasharray=""/><path fill="none" stroke="rgb(0,0,0)" class="dcg-svg-minor-gridline" paint-order="fill stroke markers" d=" M 341.5 0 L 341.5 400" stroke-opacity="0.5" stroke-miterlimit="10" stroke-dasharray=""/><path fill="none" stroke="rgb(0,0,0)" class="dcg-svg-minor-gridline" paint-order="fill stroke markers" d=" M 367.5 0 L 367.5 400" stroke-opacity="0.5" stroke-miterlimit="10" stroke-dasharray=""/><path fill="none" stroke="rgb(0,0,0)" class="dcg-svg-minor-gridline" paint-order="fill stroke markers" d=" M 393.5 0 L 393.5 400" stroke-opacity="0.5" stroke-miterlimit="10" stroke-dasharray=""/><path fill="none" stroke="rgb(0,0,0)" class="dcg-svg-minor-gridline" paint-order="fill stroke markers" d=" M 0 398.5 L 400 398.5" stroke-opacity="0.5" stroke-miterlimit="10" stroke-dasharray=""/><path fill="none" stroke="rgb(0,0,0)" class="dcg-svg-minor-gridline" paint-order="fill stroke markers" d=" M 0 372.5 L 400 372.5" stroke-opacity="0.5" stroke-miterlimit="10" stroke-dasharray=""/><path fill="none" stroke="rgb(0,0,0)" class="dcg-svg-minor-gridline" paint-order="fill stroke markers" d=" M 0 346.5 L 400 346.5" stroke-opacity="0.5" stroke-miterlimit="10" stroke-dasharray=""/><path fill="none" stroke="rgb(0,0,0)" class="dcg-svg-minor-gridline" paint-order="fill stroke markers" d=" M 0 320.5 L 400 320.5" stroke-opacity="0.5" stroke-miterlimit="10" stroke-dasharray=""/><path fill="none" stroke="rgb(0,0,0)" class="dcg-svg-minor-gridline" paint-order="fill stroke markers" d=" M 0 293.5 L 400 293.5" stroke-opacity="0.5" stroke-miterlimit="10" stroke-dasharray=""/><path fill="none" stroke="rgb(0,0,0)" class="dcg-svg-minor-gridline" paint-order="fill stroke markers" d=" M 0 241.5 L 400 241.5" stroke-opacity="0.5" stroke-miterlimit="10" stroke-dasharray=""/><path fill="none" stroke="rgb(0,0,0)" class="dcg-svg-minor-gridline" paint-order="fill stroke markers" d=" M 0 215.5 L 400 215.5" stroke-opacity="0.5" stroke-miterlimit="10" stroke-dasharray=""/><path fill="none" stroke="rgb(0,0,0)" class="dcg-svg-minor-gridline" paint-order="fill stroke markers" d=" M 0 189.5 L 400 189.5" stroke-opacity="0.5" stroke-miterlimit="10" stroke-dasharray=""/><path fill="none" stroke="rgb(0,0,0)" class="dcg-svg-minor-gridline" paint-order="fill stroke markers" d=" M 0 162.5 L 400 162.5" stroke-opacity="0.5" stroke-miterlimit="10" stroke-dasharray=""/><path fill="none" stroke="rgb(0,0,0)" class="dcg-svg-minor-gridline" paint-order="fill stroke markers" d=" M 0 136.5 L 400 136.5" stroke-opacity="0.5" stroke-miterlimit="10" stroke-dasharray=""/><path fill="none" stroke="rgb(0,0,0)" class="dcg-svg-minor-gridline" paint-order="fill stroke markers" d=" M 0 110.5 L 400 110.5" stroke-opacity="0.5" stroke-miterlimit="10" stroke-dasharray=""/><path fill="none" stroke="rgb(0,0,0)" class="dcg-svg-minor-gridline" paint-order="fill stroke markers" d=" M 0 84.5 L 400 84.5" stroke-opacity="0.5" stroke-miterlimit="10" stroke-dasharray=""/><path fill="none" stroke="rgb(0,0,0)" class="dcg-svg-minor-gridline" paint-order="fill stroke markers" d=" M 0 58.5 L 400 58.5" stroke-opacity="0.5" stroke-miterlimit="10" stroke-dasharray=""/><path fill="none" stroke="rgb(0,0,0)" class="dcg-svg-minor-gridline" paint-order="fill stroke markers" d=" M 0 31.5 L 400 31.5" stroke-opacity="0.5" stroke-miterlimit="10" stroke-dasharray=""/><path fill="none" stroke="rgb(0,0,0)" class="dcg-svg-minor-gridline" paint-order="fill stroke markers" d=" M 0 5.5 L 400 5.5" stroke-opacity="0.5" stroke-miterlimit="10" stroke-dasharray=""/><path fill="none" stroke="rgb(0,0,0)" class="dcg-svg-major-gridline" paint-order="fill stroke markers" d=" M 262.5 0 L 262.5 400" stroke-opacity="1" stroke-miterlimit="10" stroke-dasharray=""/><path fill="none" stroke="rgb(0,0,0)" class="dcg-svg-major-gridline" paint-order="fill stroke markers" d=" M 393.5 0 L 393.5 400" stroke-opacity="1" stroke-miterlimit="10" stroke-dasharray=""/><path fill="none" stroke="rgb(0,0,0)" class="dcg-svg-major-gridline" paint-order="fill stroke markers" d=" M 0 398.5 L 400 398.5" stroke-opacity="1" stroke-miterlimit="10" stroke-dasharray=""/><path fill="none" stroke="rgb(0,0,0)" class="dcg-svg-major-gridline" paint-order="fill stroke markers" d=" M 0 136.5 L 400 136.5" stroke-opacity="1" stroke-miterlimit="10" stroke-dasharray=""/><path fill="none" stroke="rgb(0,0,0)" class="dcg-svg-major-gridline" paint-order="fill stroke markers" d=" M 0 5.5 L 400 5.5" stroke-opacity="1" stroke-miterlimit="10" stroke-dasharray=""/></g></g><g id="axis-39144df4"><g id="yaxis-39144df4"><title>Y axis</title><g><path fill="none" stroke="rgb(0,0,0)" class="dcg-svg-axis-line" paint-order="fill stroke markers" d=" M 132 0 L 132 400" stroke-opacity="0.9" stroke-miterlimit="10" stroke-width="2" stroke-dasharray=""/></g></g><g id="xaxis-39144df4"><title>X axis</title><g><path fill="none" stroke="rgb(0,0,0)" class="dcg-svg-axis-line" paint-order="fill stroke markers" d=" M 0 268 L 400 268" stroke-opacity="0.9" stroke-miterlimit="10" stroke-width="2" stroke-dasharray=""/></g></g><g><g class="dcg-svg-axis-value"><text fill="none" stroke="#ffffff" font-family="Arial" font-size="20px" font-style="normal" font-weight="normal" text-decoration="normal" x="121.03427264231661" y="288.0468245634274" text-anchor="middle" stroke-miterlimit="2" stroke-width="3" stroke-dasharray="">0</text><text fill="#000000" stroke="none" font-family="Arial" font-size="20px" font-style="normal" font-weight="normal" text-decoration="normal" x="121.03427264231661" y="288.0468245634274" text-anchor="middle">0</text></g><g class="dcg-svg-axis-value dcg-svg-offcenter-axis-value"><text fill="none" stroke="#ffffff" font-family="Arial" font-size="20px" font-style="normal" font-weight="normal" text-decoration="normal" x="11.8916015625" y="288.0468245634274" text-anchor="middle" stroke-miterlimit="2" stroke-width="3" stroke-dasharray="">-1</text><text fill="#000000" stroke="none" font-family="Arial" font-size="20px" font-style="normal" font-weight="normal" text-decoration="normal" x="11.8916015625" y="288.0468245634274" text-anchor="middle">-1</text></g><g class="dcg-svg-axis-value"><text fill="none" stroke="#ffffff" font-family="Arial" font-size="20px" font-style="normal" font-weight="normal" text-decoration="normal" x="262.5824644509941" y="288.0468245634274" text-anchor="middle" stroke-miterlimit="2" stroke-width="3" stroke-dasharray="">1</text><text fill="#000000" stroke="none" font-family="Arial" font-size="20px" font-style="normal" font-weight="normal" text-decoration="normal" x="262.5824644509941" y="288.0468245634274" text-anchor="middle">1</text></g><g class="dcg-svg-axis-value dcg-svg-offcenter-axis-value"><text fill="none" stroke="#ffffff" font-family="Arial" font-size="20px" font-style="normal" font-weight="normal" text-decoration="normal" x="391.4384765625" y="288.0468245634274" text-anchor="middle" stroke-miterlimit="2" stroke-width="3" stroke-dasharray="">2</text><text fill="#000000" stroke="none" font-family="Arial" font-size="20px" font-style="normal" font-weight="normal" text-decoration="normal" x="391.4384765625" y="288.0468245634274" text-anchor="middle">2</text></g><g class="dcg-svg-axis-value dcg-svg-offcenter-axis-value"><text fill="none" stroke="#ffffff" font-family="Arial" font-size="20px" font-style="normal" font-weight="normal" text-decoration="normal" x="117.70419451731661" y="392.44" text-anchor="middle" stroke-miterlimit="2" stroke-width="3" stroke-dasharray="">-1</text><text fill="#000000" stroke="none" font-family="Arial" font-size="20px" font-style="normal" font-weight="normal" text-decoration="normal" x="117.70419451731661" y="392.44" text-anchor="middle">-1</text></g><g class="dcg-svg-axis-value"><text fill="none" stroke="#ffffff" font-family="Arial" font-size="20px" font-style="normal" font-weight="normal" text-decoration="normal" x="121.03427264231661" y="142.06015619224988" text-anchor="middle" stroke-miterlimit="2" stroke-width="3" stroke-dasharray="">1</text><text fill="#000000" stroke="none" font-family="Arial" font-size="20px" font-style="normal" font-weight="normal" text-decoration="normal" x="121.03427264231661" y="142.06015619224988" text-anchor="middle">1</text></g><g class="dcg-svg-axis-value dcg-svg-offcenter-axis-value"><text fill="none" stroke="#ffffff" font-family="Arial" font-size="20px" font-style="normal" font-weight="normal" text-decoration="normal" x="121.03427264231661" y="18.44" text-anchor="middle" stroke-miterlimit="2" stroke-width="3" stroke-dasharray="">2</text><text fill="#000000" stroke="none" font-family="Arial" font-size="20px" font-style="normal" font-weight="normal" text-decoration="normal" x="121.03427264231661" y="18.44" text-anchor="middle">2</text></g></g></g></g><g id="expressions-39144df4"><g id="sketch-39144df4"><title>Expression 1</title><path fill="#c74440" stroke="none" paint-order="stroke fill markers" d="" fill-opacity="0.4"/><g><path fill="none" stroke="#c74440" class="dcg-svg-curve" paint-order="fill stroke markers" d=" M 408 351.7518156845131 L 408 351.7518156845131 L 407.72413564771637 351.69270833333337 L 379.20236147576463 345.3125 L 352.46795953929563 339.0625 L 327.4463754953258 332.94270833333337 L 304.0646082163506 326.953125 L 282.2512097903443 321.09375 L 261.93628552075984 315.36458333333337 L 243.0514939265292 309.765625 L 225.53004674206295 304.296875 L 209.30670891725063 298.9583333333333 L 194.3177986174607 293.75 L 180.50118722354011 288.671875 L 167.79629933181496 283.72395833333337 L 156.14411275409006 278.90625 L 145.487158517649 274.21875 L 135.7695208652541 269.6614583333333 L 126.93683725514681 265.23437500000006 L 118.93629836104705 260.9375 L 111.49957668575944 256.640625 L 104.82665824541124 252.47395833333334 L 98.86784014468029 248.43750000000003 L 93.57497270372302 244.53125000000003 L 88.90145945817483 240.75520833333334 L 84.66336428518957 236.9791666666667 L 80.98456564243224 233.33333333333334 L 77.71167397814025 229.68750000000003 L 74.84468929231352 226.04166666666669 L 72.46451774770313 222.52604166666669 L 70.59718522680845 219.27083333333334 L 69.10897624059854 216.14583333333337 L 68.00676034733397 213.28125000000003 L 67.18840410605311 210.54687500000003 L 66.59837054015895 207.81250000000003 L 66.24870659284151 205.20833333333334 L 66.10613804270025 202.60416666666669 L 66.16252003170047 200.13020833333331 L 66.40580561665216 197.65625 L 66.86381371832174 195.05208333333337 L 67.5289172171675 192.44791666666669 L 68.45016231216638 189.71354166666669 L 69.66016652837365 186.84895833333337 L 71.19310060632336 183.85416666666669 L 73.08468850202843 180.72916666666666 L 75.47043874278677 177.34375000000003 L 78.31839049988861 173.828125 L 81.67048059126199 170.18229166666669 L 85.4284776611006 166.53645833333337 L 89.59238170940456 162.890625 L 94.33290748099171 159.11458333333337 L 99.69509822474792 155.20833333333337 L 105.52325361215054 151.30208333333337 L 112.03520259087507 147.265625 L 119.27909484076487 143.09895833333337 L 127.30463325714238 138.80208333333337 L 135.89398889233203 134.50520833333334 L 145.3333321750773 130.07812500000006 L 155.67547243165842 125.52083333333337 L 166.97477220383388 120.83333333333337 L 179.28714724884142 116.01562500000003 L 192.67006653939728 111.06770833333337 L 207.18255226369678 105.98958333333337 L 222.88517982541384 100.78125000000003 L 239.84007784370152 95.44270833333334 L 258.11092815319114 89.97395833333334 L 277.76296580399344 84.37500000000003 L 298.3723019282427 78.77604166666666 L 320.4518764145901 73.04687500000003 L 344.0700307441041 67.18750000000003 L 369.2966596133317 61.197916666666686 L 396.20321093429834 55.07812500000003 L 408 52.50550523228428" stroke-linecap="round" stroke-linejoin="round" stroke-miterlimit="10" stroke-width="5" stroke-opacity="0.9" stroke-dasharray=""/></g></g><g id="sketch-39144df4"><title>Expression 2</title><path fill="#2d70b3" stroke="none" paint-order="stroke fill markers" d="" fill-opacity="0.4"/><g><path fill="none" stroke="#2d70b3" class="dcg-svg-curve" paint-order="fill stroke markers" d=" M 408 314.69471701102634 L 408 314.69471701102634 L 401.1285620672252 314.19270833333337 L 363.6083428370142 311.1979166666667 L 329.37205043566246 308.203125 L 299.59321292890513 305.3385416666667 L 273.78395577255594 302.6041666666667 L 250.44270337915538 299.8697916666667 L 230.42895984005423 297.265625 L 213.3497838278808 294.7916666666667 L 198.09024552697934 292.3177083333333 L 185.25475869059062 289.97395833333337 L 174.53086349800716 287.7604166666667 L 165.63723908363428 285.6770833333333 L 157.86798548609556 283.59375 L 151.57172351110165 281.640625 L 146.52913228578112 279.8177083333333 L 142.26567972125105 277.9947916666667 L 138.9821870955905 276.3020833333333 L 136.51049474603832 274.7395833333333 L 134.70232630607944 273.3072916666667 L 133.31911003682606 271.875 L 132.34851566506697 270.44270833333337 L 131.85268640405056 269.2708333333333 L 131.6314470246581 268.2291666666667 L 131.61185299931617 267.1875 L 131.78916120264225 266.1458333333333 L 132.21808687965253 264.9739583333333 L 132.97169312796245 263.671875 L 134.12676080668246 262.2395833333333 L 135.7623989489035 260.6770833333333 L 137.95851621543105 258.984375 L 140.79415338976818 257.1614583333333 L 144.34567691434629 255.20833333333334 L 148.68483346800528 253.12500000000003 L 154.19977961149348 250.78125 L 161.05070133790204 248.17708333333334 L 169.38038020030018 245.31250000000003 L 179.30307661162 242.18750000000003 L 191.35335343979608 238.67187500000003 L 206.60971056186622 234.50520833333334 L 227.23972935366407 229.1666666666667 L 297.08973393141173 211.32812500000003 L 311.85462804394206 207.16145833333334 L 323.37372989618234 203.64583333333337 L 332.7347542965997 200.52083333333331 L 340.1425933394628 197.78645833333337 L 346.14006404254235 195.31250000000006 L 351.14455747245336 192.96875000000006 L 354.99523275065724 190.88541666666669 L 358.0591053157556 188.93229166666669 L 360.4136701879577 187.10937500000003 L 362.14065892830615 185.41666666666669 L 363.32409421615705 183.85416666666669 L 364.04848338541115 182.421875 L 364.37584214391984 181.25 L 364.46048172279615 180.20833333333337 L 364.3459725608968 179.16666666666669 L 364.02757153283915 178.12500000000003 L 363.4197501330701 176.953125 L 362.4264864504509 175.65104166666669 L 360.9366891121416 174.21875000000003 L 359.0188132251013 172.78645833333337 L 356.42387440296824 171.22395833333337 L 353.28880463713404 169.66145833333337 L 349.26438985797233 167.96875 L 344.56693135350514 166.27604166666669 L 338.7320909466017 164.45312500000003 L 331.5592069128181 162.5 L 322.823210037914 160.41666666666669 L 312.9301406708321 158.3333333333334 L 301.10850388812685 156.11979166666669 L 287.07046403731977 153.77604166666669 L 271.4149273530109 151.43229166666669 L 253.07515603369774 148.95833333333337 L 231.68826403503243 146.35416666666669 L 208.09324506318598 143.75000000000003 L 180.86088679247692 141.01562500000006 L 151.02656765484576 138.28125000000003 L 116.88732227386768 135.41666666666669 L 77.93522825306073 132.421875 L 35.538520829695344 129.42708333333337 L -8 126.59457851907857" stroke-linecap="round" stroke-linejoin="round" stroke-miterlimit="10" stroke-width="5" stroke-opacity="0.9" stroke-dasharray=""/></g></g></g><g id="labels-39144df4"/></g></svg>