<svg version="1.1" xmlns="http://www.w3.org/2000/svg" viewBox="0 0 366.5 267.5" width="366.5" height="267.5" filter="invert(93%) hue-rotate(180deg)" class="excalidraw-svg"><!-- svg-source:excalidraw --><metadata></metadata><defs><style class="style-fonts">
      </style></defs><rect x="0" y="0" width="366.5" height="267.5" fill="transparent"></rect><g stroke-linecap="round" transform="translate(10 10) rotate(0 173.25 123.75)"><path d="M32 0 C92.99 -1.66, 152.33 -0.34, 314.5 0 M32 0 C105.14 -1.89, 179.69 -2.03, 314.5 0 M314.5 0 C337.33 -0.16, 347.57 9.73, 346.5 32 M314.5 0 C337.97 1.52, 348.26 11.8, 346.5 32 M346.5 32 C345.57 83.71, 347.74 134.24, 346.5 215.5 M346.5 32 C348.64 73.27, 347.02 113.8, 346.5 215.5 M346.5 215.5 C346.08 237.68, 336.62 246.07, 314.5 247.5 M346.5 215.5 C347.53 235.52, 337.87 246.17, 314.5 247.5 M314.5 247.5 C219.14 249.49, 126.18 248.93, 32 247.5 M314.5 247.5 C255.4 249.92, 196.02 249.25, 32 247.5 M32 247.5 C12.14 245.88, -0.2 237.65, 0 215.5 M32 247.5 C11.67 246.16, 2.25 237.03, 0 215.5 M0 215.5 C1.16 167.71, -0.44 118.87, 0 32 M0 215.5 C1.88 151.63, 2.42 88.66, 0 32 M0 32 C1.87 11.2, 12.45 -1.88, 32 0 M0 32 C-0.58 12.71, 11.65 -0.46, 32 0" stroke="#000000" stroke-width="1" fill="none"></path></g><g stroke-linecap="round"><g transform="translate(55.5 219) rotate(0 120 -66.75)"><path d="M0.94 0.21 C6.01 -13.66, 14.65 -60.38, 29.92 -82.58 C45.2 -104.78, 67.13 -127.61, 92.59 -133 C118.06 -138.4, 158.2 -131.17, 182.72 -114.94 C207.23 -98.71, 230.28 -48.67, 239.67 -35.61 M-0.02 -0.73 C5.45 -15.03, 16.67 -62.09, 32.07 -84.48 C47.47 -106.87, 67.19 -129.63, 92.4 -135.08 C117.61 -140.54, 158.46 -133.92, 183.34 -117.2 C208.22 -100.48, 232.25 -48, 241.68 -34.76" stroke="#000000" stroke-width="1" fill="none"></path></g></g><mask></mask><g stroke-linecap="round" transform="translate(53 213) rotate(0 2.25 4)"><path d="M1.93 0.1 C2.4 -0.01, 3.27 0.39, 3.72 0.85 C4.17 1.31, 4.52 2.03, 4.62 2.87 C4.73 3.71, 4.6 5.05, 4.35 5.87 C4.11 6.69, 3.57 7.47, 3.15 7.77 C2.74 8.08, 2.37 7.92, 1.86 7.7 C1.36 7.48, 0.41 7.13, 0.14 6.45 C-0.14 5.77, 0.16 4.48, 0.21 3.61 C0.25 2.75, 0.12 1.9, 0.4 1.25 C0.69 0.61, 1.59 -0.05, 1.92 -0.27 C2.24 -0.48, 2.35 -0.21, 2.35 -0.05 M1.97 -0.35 C2.34 -0.36, 3.15 0.3, 3.64 0.92 C4.14 1.54, 4.81 2.44, 4.94 3.37 C5.08 4.3, 4.7 5.8, 4.45 6.53 C4.19 7.26, 3.85 7.51, 3.39 7.75 C2.94 7.99, 2.23 8.31, 1.72 7.99 C1.21 7.66, 0.65 6.54, 0.36 5.81 C0.07 5.07, -0.18 4.43, -0.02 3.59 C0.14 2.75, 0.95 1.3, 1.33 0.78 C1.71 0.27, 2.14 0.67, 2.24 0.5 C2.35 0.33, 1.91 -0.16, 1.96 -0.25" stroke="#000000" stroke-width="1" fill="none"></path></g><g stroke-linecap="round" transform="translate(92.5 109) rotate(0 8 8.25)"><path d="M6.99 0 C8.73 -0.24, 11.38 0.3, 12.87 1.36 C14.36 2.42, 15.45 4.67, 15.93 6.36 C16.41 8.05, 16.43 9.9, 15.75 11.49 C15.08 13.08, 13.45 15.1, 11.86 15.87 C10.27 16.65, 7.95 16.53, 6.23 16.14 C4.5 15.75, 2.47 14.94, 1.52 13.52 C0.57 12.11, 0.41 9.4, 0.51 7.66 C0.61 5.92, 1.02 4.41, 2.14 3.08 C3.26 1.76, 6.21 0.24, 7.24 -0.31 C8.27 -0.87, 8.23 -0.4, 8.3 -0.25 M9.8 0.68 C11.37 0.81, 13.4 1.4, 14.31 2.59 C15.23 3.78, 15.23 5.84, 15.27 7.82 C15.32 9.81, 15.51 13.12, 14.56 14.48 C13.62 15.84, 11.43 15.88, 9.62 16 C7.82 16.12, 5.35 15.95, 3.75 15.19 C2.16 14.42, 0.59 12.99, 0.05 11.41 C-0.48 9.83, -0.27 7.37, 0.54 5.7 C1.34 4.04, 3.42 2.22, 4.87 1.4 C6.31 0.59, 8.46 1.04, 9.19 0.8 C9.93 0.56, 9.17 -0.01, 9.27 -0.04" stroke="#000000" stroke-width="1" fill="none"></path></g></svg>