<svg version="1.1" xmlns="http://www.w3.org/2000/svg" viewBox="0 0 262.87718061468684 221.58813346519833" width="262.87718061468684" height="221.58813346519833" class="excalidraw-svg"><!-- svg-source:excalidraw --><metadata></metadata><defs><style class="style-fonts">
      </style></defs><rect x="0" y="0" width="262.87718061468684" height="221.58813346519833" fill="transparent"></rect><g stroke-linecap="round" transform="translate(36.170796185626614 10) rotate(0 98.25 95.75)"><path d="M196.5 95.75 C196.5 98.88, 196.34 102.02, 196.03 105.14 C195.71 108.25, 195.24 111.36, 194.61 114.43 C193.99 117.5, 193.2 120.55, 192.27 123.54 C191.34 126.54, 190.25 129.5, 189.02 132.39 C187.79 135.28, 186.41 138.13, 184.9 140.89 C183.39 143.65, 181.73 146.34, 179.94 148.95 C178.16 151.55, 176.23 154.07, 174.2 156.49 C172.16 158.91, 169.99 161.24, 167.72 163.46 C165.45 165.67, 163.06 167.78, 160.58 169.77 C158.1 171.75, 155.5 173.63, 152.83 175.36 C150.17 177.1, 147.4 178.72, 144.56 180.19 C141.73 181.67, 138.81 183.01, 135.85 184.21 C132.88 185.41, 129.84 186.47, 126.77 187.38 C123.7 188.29, 120.57 189.05, 117.42 189.66 C114.27 190.27, 111.07 190.73, 107.88 191.04 C104.69 191.35, 101.46 191.5, 98.25 191.5 C95.04 191.5, 91.81 191.35, 88.62 191.04 C85.43 190.73, 82.23 190.27, 79.08 189.66 C75.93 189.05, 72.8 188.29, 69.73 187.38 C66.66 186.47, 63.62 185.41, 60.65 184.21 C57.69 183.01, 54.77 181.67, 51.94 180.19 C49.1 178.72, 46.33 177.1, 43.67 175.36 C41 173.63, 38.4 171.75, 35.92 169.77 C33.44 167.78, 31.05 165.67, 28.78 163.46 C26.51 161.24, 24.34 158.91, 22.3 156.49 C20.27 154.07, 18.34 151.55, 16.56 148.95 C14.77 146.34, 13.11 143.65, 11.6 140.89 C10.09 138.13, 8.71 135.28, 7.48 132.39 C6.25 129.5, 5.16 126.54, 4.23 123.54 C3.3 120.55, 2.51 117.5, 1.89 114.43 C1.26 111.36, 0.79 108.25, 0.47 105.14 C0.16 102.02, 0 98.88, 0 95.75 C0 92.62, 0.16 89.48, 0.47 86.36 C0.79 83.25, 1.26 80.14, 1.89 77.07 C2.51 74, 3.3 70.95, 4.23 67.96 C5.16 64.96, 6.25 62, 7.48 59.11 C8.71 56.22, 10.09 53.37, 11.6 50.61 C13.11 47.85, 14.77 45.16, 16.56 42.55 C18.34 39.95, 20.27 37.43, 22.3 35.01 C24.34 32.59, 26.51 30.26, 28.78 28.04 C31.05 25.83, 33.44 23.72, 35.92 21.73 C38.4 19.75, 41 17.87, 43.67 16.14 C46.33 14.4, 49.1 12.78, 51.94 11.31 C54.77 9.83, 57.69 8.49, 60.65 7.29 C63.62 6.09, 66.66 5.03, 69.73 4.12 C72.8 3.21, 75.93 2.45, 79.08 1.84 C82.23 1.23, 85.43 0.77, 88.62 0.46 C91.81 0.15, 95.04 0, 98.25 0 C101.46 0, 104.69 0.15, 107.88 0.46 C111.07 0.77, 114.27 1.23, 117.42 1.84 C120.57 2.45, 123.7 3.21, 126.77 4.12 C129.84 5.03, 132.88 6.09, 135.85 7.29 C138.81 8.49, 141.73 9.83, 144.56 11.31 C147.4 12.78, 150.17 14.4, 152.83 16.14 C155.5 17.87, 158.1 19.75, 160.58 21.73 C163.06 23.72, 165.45 25.83, 167.72 28.04 C169.99 30.26, 172.16 32.59, 174.2 35.01 C176.23 37.43, 178.16 39.95, 179.94 42.55 C181.73 45.16, 183.39 47.85, 184.9 50.61 C186.41 53.37, 187.79 56.22, 189.02 59.11 C190.25 62, 191.34 64.96, 192.27 67.96 C193.2 70.95, 193.99 74, 194.61 77.07 C195.24 80.14, 195.71 83.25, 196.03 86.36 C196.34 89.48, 196.42 94.19, 196.5 95.75 C196.58 97.31, 196.58 94.19, 196.5 95.75" stroke="#000000" stroke-width="1" fill="none"></path></g><g stroke-linecap="round" transform="translate(10 100.89148742791974) rotate(0 121.43859030734342 55.34832301863929)"><path d="M27.67 0 C89.32 -3.68, 148.87 -4.69, 215.2 0 C231.46 2.26, 241.03 7.99, 242.88 27.67 C245.33 43.4, 241.59 65.83, 242.88 83.02 C242.76 101.2, 234.97 108.11, 215.2 110.7 C177.98 109.14, 134.05 109.77, 27.67 110.7 C9.44 112.65, -2.26 100.48, 0 83.02 C1.26 63.19, 3.14 41.9, 0 27.67 C-1.66 12.1, 9.47 0.99, 27.67 0" stroke="none" stroke-width="0" fill="#ffffff"></path><path d="M27.67 0 C78.82 0.12, 132.07 0.33, 215.2 0 M27.67 0 C96.34 0.54, 166.11 1.47, 215.2 0 M215.2 0 C232.95 0.13, 241.68 8.76, 242.88 27.67 M215.2 0 C232.39 2.19, 242.29 9.91, 242.88 27.67 M242.88 27.67 C242.57 42.37, 242.83 53.76, 242.88 83.02 M242.88 27.67 C243.45 44.4, 242.35 59.47, 242.88 83.02 M242.88 83.02 C244.02 99.63, 234.03 110.08, 215.2 110.7 M242.88 83.02 C241.99 100.4, 233.8 111.41, 215.2 110.7 M215.2 110.7 C168.11 110.6, 116.64 111.25, 27.67 110.7 M215.2 110.7 C147.19 111.79, 76.32 111.59, 27.67 110.7 M27.67 110.7 C9.84 111.84, -1.4 102.84, 0 83.02 M27.67 110.7 C6.93 110.31, -0.5 99.87, 0 83.02 M0 83.02 C1.25 68.78, 1.28 54.22, 0 27.67 M0 83.02 C-0.68 62.74, -0.82 40.26, 0 27.67 M0 27.67 C-0.28 8.16, 10.72 -0.38, 27.67 0 M0 27.67 C1.36 10.53, 8.82 0.51, 27.67 0" stroke="#ffffff" stroke-width="1" fill="none"></path></g><g stroke-linecap="round"><g transform="translate(35.47707384836659 99.14218969291272) rotate(0 98.55502847464953 0.42802257990683046)"><path d="M0 0 C32.85 0.14, 164.26 0.71, 197.11 0.86 M0 0 C32.85 0.14, 164.26 0.71, 197.11 0.86" stroke="#1e1e1e" stroke-width="1" fill="none"></path></g></g><mask></mask></svg>