<svg version="1.1" xmlns="http://www.w3.org/2000/svg" viewBox="0 0 385.35054376124316 370.44480638714066" width="385.35054376124316" height="370.44480638714066" class="excalidraw-svg"><!-- svg-source:excalidraw --><metadata></metadata><defs><style class="style-fonts">
      </style></defs><rect x="0" y="0" width="385.35054376124316" height="370.44480638714066" fill="transparent"></rect><g stroke-linecap="round" transform="translate(10 254.51847534961286) rotate(0 181.08955705974935 52.96316551876391)"><path d="M26.48 0 C142.89 0, 259.3 0, 335.7 0 C353.35 0, 362.18 8.83, 362.18 26.48 C362.18 43.21, 362.18 59.94, 362.18 79.44 C362.18 97.1, 353.35 105.93, 335.7 105.93 C241.55 105.93, 147.41 105.93, 26.48 105.93 C8.83 105.93, 0 97.1, 0 79.44 C0 67.47, 0 55.5, 0 26.48 C0 8.83, 8.83 0, 26.48 0" stroke="none" stroke-width="0" fill="#ffd43b"></path><path d="M26.48 0 C134.52 0, 242.55 0, 335.7 0 M26.48 0 C131.38 0, 236.28 0, 335.7 0 M335.7 0 C353.35 0, 362.18 8.83, 362.18 26.48 M335.7 0 C353.35 0, 362.18 8.83, 362.18 26.48 M362.18 26.48 C362.18 39.99, 362.18 53.49, 362.18 79.44 M362.18 26.48 C362.18 40.36, 362.18 54.25, 362.18 79.44 M362.18 79.44 C362.18 97.1, 353.35 105.93, 335.7 105.93 M362.18 79.44 C362.18 97.1, 353.35 105.93, 335.7 105.93 M335.7 105.93 C259.74 105.93, 183.78 105.93, 26.48 105.93 M335.7 105.93 C259.69 105.93, 183.69 105.93, 26.48 105.93 M26.48 105.93 C8.83 105.93, 0 97.1, 0 79.44 M26.48 105.93 C8.83 105.93, 0 97.1, 0 79.44 M0 79.44 C0 60.08, 0 40.72, 0 26.48 M0 79.44 C0 63.99, 0 48.54, 0 26.48 M0 26.48 C0 8.83, 8.83 0, 26.48 0 M0 26.48 C0 8.83, 8.83 0, 26.48 0" stroke="#f08c00" stroke-width="1" fill="none"></path></g><g transform="translate(72.34932268474935 284.48164086837676) rotate(0 118.740234375 23)"><text x="118.740234375" y="16.900390625" font-family="Helvetica, sans-serif, Segoe UI Emoji" font-size="20px" fill="#1e1e1e" text-anchor="middle" style="white-space: pre;" direction="ltr" dominant-baseline="alphabetic">Thermal Camera Wrapper </text><text x="118.740234375" y="39.900390625" font-family="Helvetica, sans-serif, Segoe UI Emoji" font-size="20px" fill="#1e1e1e" text-anchor="middle" style="white-space: pre;" direction="ltr" dominant-baseline="alphabetic">MLX Driver </text></g><g stroke-linecap="round"><g transform="translate(181.2580488341464 140.34644954235313) rotate(0 0 38.05734654142128)"><path d="M0 0 C0 12.69, 0 63.43, 0 76.11 M0 0 C0 12.69, 0 63.43, 0 76.11" stroke="#000000" stroke-width="4" fill="none"></path></g><g transform="translate(181.2580488341464 140.34644954235313) rotate(0 0 38.05734654142128)"><path d="M-8.55 52.62 C-6.55 58.11, -4.56 63.6, 0 76.11 M-8.55 52.62 C-6.01 59.6, -3.47 66.58, 0 76.11" stroke="#000000" stroke-width="4" fill="none"></path></g><g transform="translate(181.2580488341464 140.34644954235313) rotate(0 0 38.05734654142128)"><path d="M8.55 52.62 C6.55 58.11, 4.56 63.6, 0 76.11 M8.55 52.62 C6.01 59.6, 3.47 66.58, 0 76.11" stroke="#000000" stroke-width="4" fill="none"></path></g></g><mask></mask><g stroke-linecap="round" transform="translate(13.171429641744453 10) rotate(0 181.08955705974935 52.9631655187639)"><path d="M26.48 0 C97.41 0, 168.33 0, 335.7 0 C353.35 0, 362.18 8.83, 362.18 26.48 C362.18 39.33, 362.18 52.18, 362.18 79.44 C362.18 97.1, 353.35 105.93, 335.7 105.93 C268.02 105.93, 200.35 105.93, 26.48 105.93 C8.83 105.93, 0 97.1, 0 79.44 C0 66.62, 0 53.8, 0 26.48 C0 8.83, 8.83 0, 26.48 0" stroke="none" stroke-width="0" fill="#4dabf7"></path><path d="M26.48 0 C131.38 0, 236.28 0, 335.7 0 M26.48 0 C127.53 0, 228.57 0, 335.7 0 M335.7 0 C353.35 0, 362.18 8.83, 362.18 26.48 M335.7 0 C353.35 0, 362.18 8.83, 362.18 26.48 M362.18 26.48 C362.18 40.36, 362.18 54.25, 362.18 79.44 M362.18 26.48 C362.18 41.41, 362.18 56.33, 362.18 79.44 M362.18 79.44 C362.18 97.1, 353.35 105.93, 335.7 105.93 M362.18 79.44 C362.18 97.1, 353.35 105.93, 335.7 105.93 M335.7 105.93 C259.69 105.93, 183.69 105.93, 26.48 105.93 M335.7 105.93 C267.09 105.93, 198.49 105.93, 26.48 105.93 M26.48 105.93 C8.83 105.93, 0 97.1, 0 79.44 M26.48 105.93 C8.83 105.93, 0 97.1, 0 79.44 M0 79.44 C0 63.99, 0 48.54, 0 26.48 M0 79.44 C0 63.28, 0 47.11, 0 26.48 M0 26.48 C0 8.83, 8.83 0, 26.48 0 M0 26.48 C0 8.83, 8.83 0, 26.48 0" stroke="#1971c2" stroke-width="1" fill="none"></path></g><g transform="translate(104.5051273264938 46.86316551876391) rotate(0 89.755859375 16.099999999999994)"><text x="89.755859375" y="23.660546874999998" font-family="Helvetica, sans-serif, Segoe UI Emoji" font-size="28px" fill="#1e1e1e" text-anchor="middle" style="white-space: pre;" direction="ltr" dominant-baseline="alphabetic">Your algorithm</text></g><g transform="translate(128.98910608532128 77.47419174920881) rotate(0 65.35546875 9.200000000000003)"><text x="65.35546875" y="13.5203125" font-family="Helvetica, sans-serif, Segoe UI Emoji" font-size="16px" fill="#1e1e1e" text-anchor="middle" style="white-space: pre;" direction="ltr" dominant-baseline="alphabetic">(Thermal Pipeline)</text></g></svg>