<svg xmlns="http://www.w3.org/2000/svg" xmlns:svg="http://www.w3.org/2000/svg" width="210mm" height="297mm" viewBox="0 0 210 297" version="1.1" id="svg1">
  <defs id="defs1"/>
  <g id="layer1">
    <path id="path9-3-7-0" style="fill:none;fill-opacity:1;stroke:#ff0000;stroke-width:0.465;stroke-linecap:round;stroke-linejoin:bevel;stroke-dasharray:none;stroke-dashoffset:0;stroke-opacity:1;paint-order:normal" d="m 61.068663,84.25553 c 0,0 1.45942,-0.57277 1.48362,-1.206135 0.0242,-0.63334 -1.48362,-1.20612 -1.48362,-1.20612 h -2.22123 -2.25223 -2.22123 c 0,0 -1.50832,0.55961 -1.48363,1.20612 0.0237,0.620205 1.48363,1.206135 1.48363,1.206135 h 2.23156 2.23157 z"/>
    <path id="use12-4-9" style="fill:none;fill-opacity:1;stroke:#1a1a1a;stroke-width:0.465;stroke-linecap:round;stroke-linejoin:bevel;stroke-dasharray:none;stroke-dashoffset:0;stroke-opacity:1;paint-order:normal" d="m 50.793603,92.34987 c 0,0 0.57278,1.45942 1.20613,1.48362 0.63334,0.0242 1.20612,-1.48362 1.20612,-1.48362 v -2.22123 -2.25223 -2.22123 c 0,0 -0.55961,-1.50832 -1.20612,-1.48363 -0.6202,0.0237 -1.20613,1.48363 -1.20613,1.48363 v 2.23156 2.23157 z"/>
    <path id="use13-2-0" style="fill:none;fill-opacity:1;stroke:#1a1a1a;stroke-width:0.465;stroke-linecap:round;stroke-linejoin:bevel;stroke-dasharray:none;stroke-dashoffset:0;stroke-opacity:1;paint-order:normal" d="m 64.450623,85.65519 c 0,0 -0.57277,-1.45942 -1.20612,-1.48362 -0.63335,-0.0242 -1.20612,1.48362 -1.20612,1.48362 v 2.22123 2.25223 2.22123 c 0,0 0.5596,1.50832 1.20612,1.48363 0.62019,-0.0237 1.20612,-1.48363 1.20612,-1.48363 v -2.23156 -2.23157 z"/>
    <path id="use14-7-0" style="fill:none;fill-opacity:1;stroke:#1a1a1a;stroke-width:0.465;stroke-linecap:round;stroke-linejoin:bevel;stroke-dasharray:none;stroke-dashoffset:0;stroke-opacity:1;paint-order:normal" d="m 61.068663,96.227919 c 0,0 1.45942,-0.57278 1.48362,-1.20613 0.0242,-0.633339 -1.48362,-1.206119 -1.48362,-1.206119 h -2.22123 -2.25223 -2.22123 c 0,0 -1.50832,0.55961 -1.48363,1.206119 0.0237,0.6202 1.48363,1.20613 1.48363,1.20613 h 2.23156 2.23157 z"/>
    <path id="use15-7-6" style="fill:none;fill-opacity:1;stroke:#1a1a1a;stroke-width:0.465;stroke-linecap:round;stroke-linejoin:bevel;stroke-dasharray:none;stroke-dashoffset:0;stroke-opacity:1;paint-order:normal" d="m 54.175523,105.64294 c 0,0 -1.45942,0.57277 -1.48362,1.20612 -0.0242,0.63335 1.48362,1.20612 1.48362,1.20612 h 2.22123 2.25223 2.22123 c 0,0 1.50832,-0.55961 1.48363,-1.20612 -0.0237,-0.62019 -1.48363,-1.20612 -1.48363,-1.20612 h -2.23156 -2.23157 z"/>
    <path id="use16-9-1" style="fill:none;fill-opacity:1;stroke:#1a1a1a;stroke-width:0.465;stroke-linecap:round;stroke-linejoin:bevel;stroke-dasharray:none;stroke-dashoffset:0;stroke-opacity:1;paint-order:normal" d="m 64.450583,97.548589 c 0,0 -0.57278,-1.45942 -1.20613,-1.48362 -0.63334,-0.0242 -1.20612,1.48362 -1.20612,1.48362 v 2.22123 2.252231 2.22124 c 0,0 0.55961,1.50832 1.20612,1.48363 0.6202,-0.0237 1.20613,-1.48363 1.20613,-1.48363 v -2.23157 -2.231571 z"/>
    <path id="use17-3-3" style="fill:none;fill-opacity:1;stroke:#1a1a1a;stroke-width:0.465;stroke-linecap:round;stroke-linejoin:bevel;stroke-dasharray:none;stroke-dashoffset:0;stroke-opacity:1;paint-order:normal" d="m 50.793563,104.24327 c 0,0 0.57277,1.45942 1.20613,1.48363 0.63334,0.0242 1.20612,-1.48363 1.20612,-1.48363 v -2.22122 -2.252231 -2.22123 c 0,0 -0.55961,-1.50832 -1.20612,-1.48363 -0.6202,0.0237 -1.20613,1.48363 -1.20613,1.48363 v 2.23156 2.231571 z"/>
    <path id="path9-3-7-0-8" style="fill:none;fill-opacity:1;stroke:#ff0000;stroke-width:0.465;stroke-linecap:round;stroke-linejoin:bevel;stroke-dasharray:none;stroke-dashoffset:0;stroke-opacity:1;paint-order:normal" d="m 83.424023,84.25553 c 0,0 1.45942,-0.57277 1.48362,-1.206135 0.0242,-0.63334 -1.48362,-1.20612 -1.48362,-1.20612 h -2.22123 -2.25223 -2.22123 c 0,0 -1.50832,0.55961 -1.48363,1.20612 0.0237,0.620205 1.48363,1.206135 1.48363,1.206135 h 2.23156 2.23157 z"/>
    <path id="use12-4-9-2" style="fill:none;fill-opacity:1;stroke:#1a1a1a;stroke-width:0.465;stroke-linecap:round;stroke-linejoin:bevel;stroke-dasharray:none;stroke-dashoffset:0;stroke-opacity:1;paint-order:normal" d="m 73.148963,92.34987 c 0,0 0.57278,1.45942 1.20613,1.48362 0.63334,0.0242 1.20612,-1.48362 1.20612,-1.48362 v -2.22123 -2.25223 -2.22123 c 0,0 -0.55961,-1.50832 -1.20612,-1.48363 -0.6202,0.0237 -1.20613,1.48363 -1.20613,1.48363 v 2.23156 2.23157 z"/>
    <path id="use13-2-0-6" style="fill:none;fill-opacity:1;stroke:#ff0000;stroke-width:0.465;stroke-linecap:round;stroke-linejoin:bevel;stroke-dasharray:none;stroke-dashoffset:0;stroke-opacity:1;paint-order:normal" d="m 86.805983,85.65519 c 0,0 -0.57277,-1.45942 -1.20612,-1.48362 -0.63335,-0.0242 -1.20612,1.48362 -1.20612,1.48362 v 2.22123 2.25223 2.22123 c 0,0 0.5596,1.50832 1.20612,1.48363 0.62019,-0.0237 1.20612,-1.48363 1.20612,-1.48363 v -2.23156 -2.23157 z"/>
    <path id="use14-7-0-6" style="fill:none;fill-opacity:1;stroke:#1a1a1a;stroke-width:0.465;stroke-linecap:round;stroke-linejoin:bevel;stroke-dasharray:none;stroke-dashoffset:0;stroke-opacity:1;paint-order:normal" d="m 83.424023,96.227919 c 0,0 1.45942,-0.57278 1.48362,-1.20613 0.0242,-0.633339 -1.48362,-1.206119 -1.48362,-1.206119 h -2.22123 -2.25223 -2.22123 c 0,0 -1.50832,0.55961 -1.48363,1.206119 0.0237,0.6202 1.48363,1.20613 1.48363,1.20613 h 2.23156 2.23157 z"/>
    <path id="use15-7-6-0" style="fill:none;fill-opacity:1;stroke:#1a1a1a;stroke-width:0.465;stroke-linecap:round;stroke-linejoin:bevel;stroke-dasharray:none;stroke-dashoffset:0;stroke-opacity:1;paint-order:normal" d="m 76.530883,105.64294 c 0,0 -1.45942,0.57277 -1.48362,1.20612 -0.0242,0.63335 1.48362,1.20612 1.48362,1.20612 h 2.22123 2.25223 2.22123 c 0,0 1.50832,-0.55961 1.48363,-1.20612 -0.0237,-0.62019 -1.48363,-1.20612 -1.48363,-1.20612 h -2.23156 -2.23157 z"/>
    <path id="use16-9-1-3" style="fill:none;fill-opacity:1;stroke:#1a1a1a;stroke-width:0.465;stroke-linecap:round;stroke-linejoin:bevel;stroke-dasharray:none;stroke-dashoffset:0;stroke-opacity:1;paint-order:normal" d="m 86.805943,97.548589 c 0,0 -0.57278,-1.45942 -1.20613,-1.48362 -0.63334,-0.0242 -1.20612,1.48362 -1.20612,1.48362 v 2.22123 2.252231 2.22124 c 0,0 0.55961,1.50832 1.20612,1.48363 0.6202,-0.0237 1.20613,-1.48363 1.20613,-1.48363 v -2.23157 -2.231571 z"/>
    <path id="use17-3-3-8" style="fill:none;fill-opacity:1;stroke:#1a1a1a;stroke-width:0.465;stroke-linecap:round;stroke-linejoin:bevel;stroke-dasharray:none;stroke-dashoffset:0;stroke-opacity:1;paint-order:normal" d="m 73.148923,104.24327 c 0,0 0.57277,1.45942 1.20613,1.48363 0.63334,0.0242 1.20612,-1.48363 1.20612,-1.48363 v -2.22122 -2.252231 -2.22123 c 0,0 -0.55961,-1.50832 -1.20612,-1.48363 -0.6202,0.0237 -1.20613,1.48363 -1.20613,1.48363 v 2.23156 2.231571 z"/>
    <path id="path9-3-7-0-9" style="fill:none;fill-opacity:1;stroke:#28170b;stroke-width:0.465;stroke-linecap:round;stroke-linejoin:bevel;stroke-dasharray:none;stroke-dashoffset:0;stroke-opacity:1;paint-order:normal" d="m 105.77938,84.25553 c 0,0 1.45942,-0.57277 1.48362,-1.206135 0.0242,-0.63334 -1.48362,-1.20612 -1.48362,-1.20612 h -2.22123 -2.25223 -2.221227 c 0,0 -1.50832,0.55961 -1.48363,1.20612 0.0237,0.620205 1.48363,1.206135 1.48363,1.206135 h 2.231557 2.23157 z"/>
    <path id="use12-4-9-4" style="fill:none;fill-opacity:1;stroke:#1a1a1a;stroke-width:0.465;stroke-linecap:round;stroke-linejoin:bevel;stroke-dasharray:none;stroke-dashoffset:0;stroke-opacity:1;paint-order:normal" d="m 95.504323,92.34987 c 0,0 0.57278,1.45942 1.20613,1.48362 0.63334,0.0242 1.20612,-1.48362 1.20612,-1.48362 v -2.22123 -2.25223 -2.22123 c 0,0 -0.55961,-1.50832 -1.20612,-1.48363 -0.6202,0.0237 -1.20613,1.48363 -1.20613,1.48363 v 2.23156 2.23157 z"/>
    <path id="use13-2-0-7" style="fill:none;fill-opacity:1;stroke:#ff0000;stroke-width:0.465;stroke-linecap:round;stroke-linejoin:bevel;stroke-dasharray:none;stroke-dashoffset:0;stroke-opacity:1;paint-order:normal" d="m 109.16134,85.65519 c 0,0 -0.57277,-1.45942 -1.20612,-1.48362 -0.63335,-0.0242 -1.20612,1.48362 -1.20612,1.48362 v 2.22123 2.25223 2.22123 c 0,0 0.5596,1.50832 1.20612,1.48363 0.62019,-0.0237 1.20612,-1.48363 1.20612,-1.48363 v -2.23156 -2.23157 z"/>
    <path id="use14-7-0-8" style="fill:none;fill-opacity:1;stroke:#ff0000;stroke-width:0.465;stroke-linecap:round;stroke-linejoin:bevel;stroke-dasharray:none;stroke-dashoffset:0;stroke-opacity:1;paint-order:normal" d="m 105.77938,96.227919 c 0,0 1.45942,-0.57278 1.48362,-1.20613 0.0242,-0.633339 -1.48362,-1.206119 -1.48362,-1.206119 h -2.22123 -2.25223 -2.221227 c 0,0 -1.50832,0.55961 -1.48363,1.206119 0.0237,0.6202 1.48363,1.20613 1.48363,1.20613 h 2.231557 2.23157 z"/>
    <path id="use15-7-6-3" style="fill:none;fill-opacity:1;stroke:#1a1a1a;stroke-width:0.465;stroke-linecap:round;stroke-linejoin:bevel;stroke-dasharray:none;stroke-dashoffset:0;stroke-opacity:1;paint-order:normal" d="m 98.886243,105.64294 c 0,0 -1.45942,0.57277 -1.48362,1.20612 -0.0242,0.63335 1.48362,1.20612 1.48362,1.20612 h 2.221227 2.25223 2.22123 c 0,0 1.50832,-0.55961 1.48363,-1.20612 -0.0237,-0.62019 -1.48363,-1.20612 -1.48363,-1.20612 h -2.23156 -2.23157 z"/>
    <path id="use16-9-1-5" style="fill:none;fill-opacity:1;stroke:#1a1a1a;stroke-width:0.465;stroke-linecap:round;stroke-linejoin:bevel;stroke-dasharray:none;stroke-dashoffset:0;stroke-opacity:1;paint-order:normal" d="m 109.1613,97.548589 c 0,0 -0.57278,-1.45942 -1.20613,-1.48362 -0.63334,-0.0242 -1.20612,1.48362 -1.20612,1.48362 v 2.22123 2.252231 2.22124 c 0,0 0.55961,1.50832 1.20612,1.48363 0.6202,-0.0237 1.20613,-1.48363 1.20613,-1.48363 v -2.23157 -2.231571 z"/>
    <path id="use17-3-3-1" style="fill:none;fill-opacity:1;stroke:#1a1a1a;stroke-width:0.465;stroke-linecap:round;stroke-linejoin:bevel;stroke-dasharray:none;stroke-dashoffset:0;stroke-opacity:1;paint-order:normal" d="m 95.504283,104.24327 c 0,0 0.57277,1.45942 1.20613,1.48363 0.63334,0.0242 1.20612,-1.48363 1.20612,-1.48363 v -2.22122 -2.252231 -2.22123 c 0,0 -0.55961,-1.50832 -1.20612,-1.48363 -0.6202,0.0237 -1.20613,1.48363 -1.20613,1.48363 v 2.23156 2.231571 z"/>
    <path id="path9-3-7-0-0" style="fill:none;fill-opacity:1;stroke:#1a1a1a;stroke-width:0.465;stroke-linecap:round;stroke-linejoin:bevel;stroke-dasharray:none;stroke-dashoffset:0;stroke-opacity:1;paint-order:normal" d="m 128.13474,84.25553 c 0,0 1.45942,-0.57277 1.48362,-1.206135 0.0242,-0.63334 -1.48362,-1.20612 -1.48362,-1.20612 h -2.22123 -2.25223 -2.22123 c 0,0 -1.50832,0.55961 -1.48363,1.20612 0.0237,0.620205 1.48363,1.206135 1.48363,1.206135 h 2.23156 2.23157 z"/>
    <path id="use12-4-9-6" style="fill:none;fill-opacity:1;stroke:#1a1a1a;stroke-width:0.465;stroke-linecap:round;stroke-linejoin:bevel;stroke-dasharray:none;stroke-dashoffset:0;stroke-opacity:1;paint-order:normal" d="m 117.85968,92.34987 c 0,0 0.57278,1.45942 1.20613,1.48362 0.63334,0.0242 1.20612,-1.48362 1.20612,-1.48362 v -2.22123 -2.25223 -2.22123 c 0,0 -0.55961,-1.50832 -1.20612,-1.48363 -0.6202,0.0237 -1.20613,1.48363 -1.20613,1.48363 v 2.23156 2.23157 z"/>
    <path id="use13-2-0-1" style="fill:none;fill-opacity:1;stroke:#1a1a1a;stroke-width:0.465;stroke-linecap:round;stroke-linejoin:bevel;stroke-dasharray:none;stroke-dashoffset:0;stroke-opacity:1;paint-order:normal" d="m 131.5167,85.65519 c 0,0 -0.57277,-1.45942 -1.20612,-1.48362 -0.63335,-0.0242 -1.20612,1.48362 -1.20612,1.48362 v 2.22123 2.25223 2.22123 c 0,0 0.5596,1.50832 1.20612,1.48363 0.62019,-0.0237 1.20612,-1.48363 1.20612,-1.48363 v -2.23156 -2.23157 z"/>
    <path id="use14-7-0-89" style="fill:none;fill-opacity:1;stroke:#ff0000;stroke-width:0.465;stroke-linecap:round;stroke-linejoin:bevel;stroke-dasharray:none;stroke-dashoffset:0;stroke-opacity:1;paint-order:normal" d="m 128.13474,96.227919 c 0,0 1.45942,-0.57278 1.48362,-1.20613 0.0242,-0.633339 -1.48362,-1.206119 -1.48362,-1.206119 h -2.22123 -2.25223 -2.22123 c 0,0 -1.50832,0.55961 -1.48363,1.206119 0.0237,0.6202 1.48363,1.20613 1.48363,1.20613 h 2.23156 2.23157 z"/>
    <path id="use15-7-6-8" style="fill:none;fill-opacity:1;stroke:#1a1a1a;stroke-width:0.465;stroke-linecap:round;stroke-linejoin:bevel;stroke-dasharray:none;stroke-dashoffset:0;stroke-opacity:1;paint-order:normal" d="m 121.2416,105.64294 c 0,0 -1.45942,0.57277 -1.48362,1.20612 -0.0242,0.63335 1.48362,1.20612 1.48362,1.20612 h 2.22123 2.25223 2.22123 c 0,0 1.50832,-0.55961 1.48363,-1.20612 -0.0237,-0.62019 -1.48363,-1.20612 -1.48363,-1.20612 h -2.23156 -2.23157 z"/>
    <path id="use16-9-1-4" style="fill:none;fill-opacity:1;stroke:#1a1a1a;stroke-width:0.465;stroke-linecap:round;stroke-linejoin:bevel;stroke-dasharray:none;stroke-dashoffset:0;stroke-opacity:1;paint-order:normal" d="m 131.51666,97.548589 c 0,0 -0.57278,-1.45942 -1.20613,-1.48362 -0.63334,-0.0242 -1.20612,1.48362 -1.20612,1.48362 v 2.22123 2.252231 2.22124 c 0,0 0.55961,1.50832 1.20612,1.48363 0.6202,-0.0237 1.20613,-1.48363 1.20613,-1.48363 v -2.23157 -2.231571 z"/>
    <path id="use17-3-3-14" style="fill:none;fill-opacity:1;stroke:#ff0000;stroke-width:0.465;stroke-linecap:round;stroke-linejoin:bevel;stroke-dasharray:none;stroke-dashoffset:0;stroke-opacity:1;paint-order:normal" d="m 117.85964,104.24327 c 0,0 0.57277,1.45942 1.20613,1.48363 0.63334,0.0242 1.20612,-1.48363 1.20612,-1.48363 v -2.22122 -2.252231 -2.22123 c 0,0 -0.55961,-1.50832 -1.20612,-1.48363 -0.6202,0.0237 -1.20613,1.48363 -1.20613,1.48363 v 2.23156 2.231571 z"/>
    <path id="path9-3-7-0-7" style="fill:none;fill-opacity:1;stroke:#1a1a1a;stroke-width:0.465;stroke-linecap:round;stroke-linejoin:bevel;stroke-dasharray:none;stroke-dashoffset:0;stroke-opacity:1;paint-order:normal" d="m 150.4901,84.25553 c 0,0 1.45942,-0.57277 1.48362,-1.206135 0.0242,-0.63334 -1.48362,-1.20612 -1.48362,-1.20612 h -2.22123 -2.25223 -2.22123 c 0,0 -1.50832,0.55961 -1.48363,1.20612 0.0237,0.620205 1.48363,1.206135 1.48363,1.206135 h 2.23156 2.23157 z"/>
    <path id="use12-4-9-7" style="fill:none;fill-opacity:1;stroke:#1a1a1a;stroke-width:0.465;stroke-linecap:round;stroke-linejoin:bevel;stroke-dasharray:none;stroke-dashoffset:0;stroke-opacity:1;paint-order:normal" d="m 140.21504,92.34987 c 0,0 0.57278,1.45942 1.20613,1.48362 0.63334,0.0242 1.20612,-1.48362 1.20612,-1.48362 v -2.22123 -2.25223 -2.22123 c 0,0 -0.55961,-1.50832 -1.20612,-1.48363 -0.6202,0.0237 -1.20613,1.48363 -1.20613,1.48363 v 2.23156 2.23157 z"/>
    <path id="use13-2-0-8" style="fill:none;fill-opacity:1;stroke:#1a1a1a;stroke-width:0.465;stroke-linecap:round;stroke-linejoin:bevel;stroke-dasharray:none;stroke-dashoffset:0;stroke-opacity:1;paint-order:normal" d="m 153.87206,85.65519 c 0,0 -0.57277,-1.45942 -1.20612,-1.48362 -0.63335,-0.0242 -1.20612,1.48362 -1.20612,1.48362 v 2.22123 2.25223 2.22123 c 0,0 0.5596,1.50832 1.20612,1.48363 0.62019,-0.0237 1.20612,-1.48363 1.20612,-1.48363 v -2.23156 -2.23157 z"/>
    <path id="use14-7-0-3" style="fill:none;fill-opacity:1;stroke:#1a1a1a;stroke-width:0.465;stroke-linecap:round;stroke-linejoin:bevel;stroke-dasharray:none;stroke-dashoffset:0;stroke-opacity:1;paint-order:normal" d="m 150.4901,96.227919 c 0,0 1.45942,-0.57278 1.48362,-1.20613 0.0242,-0.633339 -1.48362,-1.206119 -1.48362,-1.206119 h -2.22123 -2.25223 -2.22123 c 0,0 -1.50832,0.55961 -1.48363,1.206119 0.0237,0.6202 1.48363,1.20613 1.48363,1.20613 h 2.23156 2.23157 z"/>
    <path id="use15-7-6-83" style="fill:none;fill-opacity:1;stroke:#ff0000;stroke-width:0.465;stroke-linecap:round;stroke-linejoin:bevel;stroke-dasharray:none;stroke-dashoffset:0;stroke-opacity:1;paint-order:normal" d="m 143.59696,105.64294 c 0,0 -1.45942,0.57277 -1.48362,1.20612 -0.0242,0.63335 1.48362,1.20612 1.48362,1.20612 h 2.22123 2.25223 2.22123 c 0,0 1.50832,-0.55961 1.48363,-1.20612 -0.0237,-0.62019 -1.48363,-1.20612 -1.48363,-1.20612 h -2.23156 -2.23157 z"/>
    <path id="use16-9-1-7" style="fill:none;fill-opacity:1;stroke:#1a1a1a;stroke-width:0.465;stroke-linecap:round;stroke-linejoin:bevel;stroke-dasharray:none;stroke-dashoffset:0;stroke-opacity:1;paint-order:normal" d="m 153.87202,97.548589 c 0,0 -0.57278,-1.45942 -1.20613,-1.48362 -0.63334,-0.0242 -1.20612,1.48362 -1.20612,1.48362 v 2.22123 2.252231 2.22124 c 0,0 0.55961,1.50832 1.20612,1.48363 0.6202,-0.0237 1.20613,-1.48363 1.20613,-1.48363 v -2.23157 -2.231571 z"/>
    <path id="use17-3-3-10" style="fill:none;fill-opacity:1;stroke:#ff0000;stroke-width:0.465;stroke-linecap:round;stroke-linejoin:bevel;stroke-dasharray:none;stroke-dashoffset:0;stroke-opacity:1;paint-order:normal" d="m 140.215,104.24327 c 0,0 0.57277,1.45942 1.20613,1.48363 0.63334,0.0242 1.20612,-1.48363 1.20612,-1.48363 v -2.22122 -2.252231 -2.22123 c 0,0 -0.55961,-1.50832 -1.20612,-1.48363 -0.6202,0.0237 -1.20613,1.48363 -1.20613,1.48363 v 2.23156 2.231571 z"/>
    <path id="path9-3-7-0-5" style="fill:none;fill-opacity:1;stroke:#1a1a1a;stroke-width:0.465;stroke-linecap:round;stroke-linejoin:bevel;stroke-dasharray:none;stroke-dashoffset:0;stroke-opacity:1;paint-order:normal" d="m 61.068663,120.23535 c 0,0 1.45942,-0.57277 1.48362,-1.20613 0.0242,-0.63334 -1.48362,-1.20612 -1.48362,-1.20612 h -2.22123 -2.25223 -2.22123 c 0,0 -1.50832,0.55961 -1.48363,1.20612 0.0237,0.6202 1.48363,1.20613 1.48363,1.20613 h 2.23156 2.23157 z"/>
    <path id="use12-4-9-1" style="fill:none;fill-opacity:1;stroke:#1a1a1a;stroke-width:0.465;stroke-linecap:round;stroke-linejoin:bevel;stroke-dasharray:none;stroke-dashoffset:0;stroke-opacity:1;paint-order:normal" d="m 50.793603,128.32969 c 0,0 0.57278,1.45942 1.20613,1.48362 0.63334,0.0242 1.20612,-1.48362 1.20612,-1.48362 v -2.22123 -2.25223 -2.22123 c 0,0 -0.55961,-1.50832 -1.20612,-1.48363 -0.6202,0.0237 -1.20613,1.48363 -1.20613,1.48363 v 2.23156 2.23157 z"/>
    <path id="use13-2-0-0" style="fill:none;fill-opacity:1;stroke:#1a1a1a;stroke-width:0.465;stroke-linecap:round;stroke-linejoin:bevel;stroke-dasharray:none;stroke-dashoffset:0;stroke-opacity:1;paint-order:normal" d="m 64.450623,121.63501 c 0,0 -0.57277,-1.45942 -1.20612,-1.48362 -0.63335,-0.0242 -1.20612,1.48362 -1.20612,1.48362 v 2.22123 2.25223 2.22123 c 0,0 0.5596,1.50832 1.20612,1.48363 0.62019,-0.0237 1.20612,-1.48363 1.20612,-1.48363 v -2.23156 -2.23157 z"/>
    <path id="use14-7-0-9" style="fill:none;fill-opacity:1;stroke:#1a1a1a;stroke-width:0.465;stroke-linecap:round;stroke-linejoin:bevel;stroke-dasharray:none;stroke-dashoffset:0;stroke-opacity:1;paint-order:normal" d="m 61.068663,132.20774 c 0,0 1.45942,-0.57278 1.48362,-1.20613 0.0242,-0.63334 -1.48362,-1.20612 -1.48362,-1.20612 h -2.22123 -2.25223 -2.22123 c 0,0 -1.50832,0.55961 -1.48363,1.20612 0.0237,0.6202 1.48363,1.20613 1.48363,1.20613 h 2.23156 2.23157 z"/>
    <path id="use15-7-6-9" style="fill:none;fill-opacity:1;stroke:#ff0000;stroke-width:0.465;stroke-linecap:round;stroke-linejoin:bevel;stroke-dasharray:none;stroke-dashoffset:0;stroke-opacity:1;paint-order:normal" d="m 54.175523,141.62276 c 0,0 -1.45942,0.57277 -1.48362,1.20612 -0.0242,0.63335 1.48362,1.20612 1.48362,1.20612 h 2.22123 2.25223 2.22123 c 0,0 1.50832,-0.55961 1.48363,-1.20612 -0.0237,-0.62019 -1.48363,-1.20612 -1.48363,-1.20612 h -2.23156 -2.23157 z"/>
    <path id="use16-9-1-6" style="fill:none;fill-opacity:1;stroke:#ff0000;stroke-width:0.465;stroke-linecap:round;stroke-linejoin:bevel;stroke-dasharray:none;stroke-dashoffset:0;stroke-opacity:1;paint-order:normal" d="m 64.450583,133.52841 c 0,0 -0.57278,-1.45942 -1.20613,-1.48362 -0.63334,-0.0242 -1.20612,1.48362 -1.20612,1.48362 v 2.22123 2.25223 2.22124 c 0,0 0.55961,1.50832 1.20612,1.48363 0.6202,-0.0237 1.20613,-1.48363 1.20613,-1.48363 v -2.23157 -2.23157 z"/>
    <path id="use17-3-3-83" style="fill:none;fill-opacity:1;stroke:#1a1a1a;stroke-width:0.465;stroke-linecap:round;stroke-linejoin:bevel;stroke-dasharray:none;stroke-dashoffset:0;stroke-opacity:1;paint-order:normal" d="m 50.793563,140.22309 c 0,0 0.57277,1.45942 1.20613,1.48363 0.63334,0.0242 1.20612,-1.48363 1.20612,-1.48363 v -2.22122 -2.25223 -2.22123 c 0,0 -0.55961,-1.50832 -1.20612,-1.48363 -0.6202,0.0237 -1.20613,1.48363 -1.20613,1.48363 v 2.23156 2.23157 z"/>
    <path id="path9-3-7-0-2" style="fill:none;fill-opacity:1;stroke:#1a1a1a;stroke-width:0.465;stroke-linecap:round;stroke-linejoin:bevel;stroke-dasharray:none;stroke-dashoffset:0;stroke-opacity:1;paint-order:normal" d="m 83.424023,120.23535 c 0,0 1.45942,-0.57277 1.48362,-1.20613 0.0242,-0.63334 -1.48362,-1.20612 -1.48362,-1.20612 h -2.22123 -2.25223 -2.22123 c 0,0 -1.50832,0.55961 -1.48363,1.20612 0.0237,0.6202 1.48363,1.20613 1.48363,1.20613 h 2.23156 2.23157 z"/>
    <path id="use12-4-9-5" style="fill:none;fill-opacity:1;stroke:#1a1a1a;stroke-width:0.465;stroke-linecap:round;stroke-linejoin:bevel;stroke-dasharray:none;stroke-dashoffset:0;stroke-opacity:1;paint-order:normal" d="m 73.148963,128.32969 c 0,0 0.57278,1.45942 1.20613,1.48362 0.63334,0.0242 1.20612,-1.48362 1.20612,-1.48362 v -2.22123 -2.25223 -2.22123 c 0,0 -0.55961,-1.50832 -1.20612,-1.48363 -0.6202,0.0237 -1.20613,1.48363 -1.20613,1.48363 v 2.23156 2.23157 z"/>
    <path id="use13-2-0-5" style="fill:none;fill-opacity:1;stroke:#ff0000;stroke-width:0.465;stroke-linecap:round;stroke-linejoin:bevel;stroke-dasharray:none;stroke-dashoffset:0;stroke-opacity:1;paint-order:normal" d="m 86.805983,121.63501 c 0,0 -0.57277,-1.45942 -1.20612,-1.48362 -0.63335,-0.0242 -1.20612,1.48362 -1.20612,1.48362 v 2.22123 2.25223 2.22123 c 0,0 0.5596,1.50832 1.20612,1.48363 0.62019,-0.0237 1.20612,-1.48363 1.20612,-1.48363 v -2.23156 -2.23157 z"/>
    <path id="use14-7-0-33" style="fill:none;fill-opacity:1;stroke:#1a1a1a;stroke-width:0.465;stroke-linecap:round;stroke-linejoin:bevel;stroke-dasharray:none;stroke-dashoffset:0;stroke-opacity:1;paint-order:normal" d="m 83.424023,132.20774 c 0,0 1.45942,-0.57278 1.48362,-1.20613 0.0242,-0.63334 -1.48362,-1.20612 -1.48362,-1.20612 h -2.22123 -2.25223 -2.22123 c 0,0 -1.50832,0.55961 -1.48363,1.20612 0.0237,0.6202 1.48363,1.20613 1.48363,1.20613 h 2.23156 2.23157 z"/>
    <path id="use15-7-6-37" style="fill:none;fill-opacity:1;stroke:#ff0000;stroke-width:0.465;stroke-linecap:round;stroke-linejoin:bevel;stroke-dasharray:none;stroke-dashoffset:0;stroke-opacity:1;paint-order:normal" d="m 76.530883,141.62276 c 0,0 -1.45942,0.57277 -1.48362,1.20612 -0.0242,0.63335 1.48362,1.20612 1.48362,1.20612 h 2.22123 2.25223 2.22123 c 0,0 1.50832,-0.55961 1.48363,-1.20612 -0.0237,-0.62019 -1.48363,-1.20612 -1.48363,-1.20612 h -2.23156 -2.23157 z"/>
    <path id="use16-9-1-43" style="fill:none;fill-opacity:1;stroke:#ff0000;stroke-width:0.465;stroke-linecap:round;stroke-linejoin:bevel;stroke-dasharray:none;stroke-dashoffset:0;stroke-opacity:1;paint-order:normal" d="m 86.805943,133.52841 c 0,0 -0.57278,-1.45942 -1.20613,-1.48362 -0.63334,-0.0242 -1.20612,1.48362 -1.20612,1.48362 v 2.22123 2.25223 2.22124 c 0,0 0.55961,1.50832 1.20612,1.48363 0.6202,-0.0237 1.20613,-1.48363 1.20613,-1.48363 v -2.23157 -2.23157 z"/>
    <path id="use17-3-3-80" style="fill:none;fill-opacity:1;stroke:#1a1a1a;stroke-width:0.465;stroke-linecap:round;stroke-linejoin:bevel;stroke-dasharray:none;stroke-dashoffset:0;stroke-opacity:1;paint-order:normal" d="m 73.148923,140.22309 c 0,0 0.57277,1.45942 1.20613,1.48363 0.63334,0.0242 1.20612,-1.48363 1.20612,-1.48363 v -2.22122 -2.25223 -2.22123 c 0,0 -0.55961,-1.50832 -1.20612,-1.48363 -0.6202,0.0237 -1.20613,1.48363 -1.20613,1.48363 v 2.23156 2.23157 z"/>
    <path id="path9-3-7-0-1" style="fill:none;fill-opacity:1;stroke:#ff0000;stroke-width:0.465;stroke-linecap:round;stroke-linejoin:bevel;stroke-dasharray:none;stroke-dashoffset:0;stroke-opacity:1;paint-order:normal" d="m 105.77938,120.23535 c 0,0 1.45942,-0.57277 1.48362,-1.20613 0.0242,-0.63334 -1.48362,-1.20612 -1.48362,-1.20612 h -2.22123 -2.25223 -2.221227 c 0,0 -1.50832,0.55961 -1.48363,1.20612 0.0237,0.6202 1.48363,1.20613 1.48363,1.20613 h 2.231557 2.23157 z"/>
    <path id="use12-4-9-9" style="fill:none;fill-opacity:1;stroke:#1a1a1a;stroke-width:0.465;stroke-linecap:round;stroke-linejoin:bevel;stroke-dasharray:none;stroke-dashoffset:0;stroke-opacity:1;paint-order:normal" d="m 95.504323,128.32969 c 0,0 0.57278,1.45942 1.20613,1.48362 0.63334,0.0242 1.20612,-1.48362 1.20612,-1.48362 v -2.22123 -2.25223 -2.22123 c 0,0 -0.55961,-1.50832 -1.20612,-1.48363 -0.6202,0.0237 -1.20613,1.48363 -1.20613,1.48363 v 2.23156 2.23157 z"/>
    <path id="use13-2-0-89" style="fill:none;fill-opacity:1;stroke:#ff0000;stroke-width:0.465;stroke-linecap:round;stroke-linejoin:bevel;stroke-dasharray:none;stroke-dashoffset:0;stroke-opacity:1;paint-order:normal" d="m 109.16134,121.63501 c 0,0 -0.57277,-1.45942 -1.20612,-1.48362 -0.63335,-0.0242 -1.20612,1.48362 -1.20612,1.48362 v 2.22123 2.25223 2.22123 c 0,0 0.5596,1.50832 1.20612,1.48363 0.62019,-0.0237 1.20612,-1.48363 1.20612,-1.48363 v -2.23156 -2.23157 z"/>
    <path id="use14-7-0-7" style="fill:none;fill-opacity:1;stroke:#1a1a1a;stroke-width:0.465;stroke-linecap:round;stroke-linejoin:bevel;stroke-dasharray:none;stroke-dashoffset:0;stroke-opacity:1;paint-order:normal" d="m 105.77938,132.20774 c 0,0 1.45942,-0.57278 1.48362,-1.20613 0.0242,-0.63334 -1.48362,-1.20612 -1.48362,-1.20612 h -2.22123 -2.25223 -2.221227 c 0,0 -1.50832,0.55961 -1.48363,1.20612 0.0237,0.6202 1.48363,1.20613 1.48363,1.20613 h 2.231557 2.23157 z"/>
    <path id="use15-7-6-2" style="fill:none;fill-opacity:1;stroke:#ff0000;stroke-width:0.465;stroke-linecap:round;stroke-linejoin:bevel;stroke-dasharray:none;stroke-dashoffset:0;stroke-opacity:1;paint-order:normal" d="m 98.886243,141.62276 c 0,0 -1.45942,0.57277 -1.48362,1.20612 -0.0242,0.63335 1.48362,1.20612 1.48362,1.20612 h 2.221227 2.25223 2.22123 c 0,0 1.50832,-0.55961 1.48363,-1.20612 -0.0237,-0.62019 -1.48363,-1.20612 -1.48363,-1.20612 h -2.23156 -2.23157 z"/>
    <path id="use16-9-1-2" style="fill:none;fill-opacity:1;stroke:#ff0000;stroke-width:0.465;stroke-linecap:round;stroke-linejoin:bevel;stroke-dasharray:none;stroke-dashoffset:0;stroke-opacity:1;paint-order:normal" d="m 109.1613,133.52841 c 0,0 -0.57278,-1.45942 -1.20613,-1.48362 -0.63334,-0.0242 -1.20612,1.48362 -1.20612,1.48362 v 2.22123 2.25223 2.22124 c 0,0 0.55961,1.50832 1.20612,1.48363 0.6202,-0.0237 1.20613,-1.48363 1.20613,-1.48363 v -2.23157 -2.23157 z"/>
    <path id="use17-3-3-82" style="fill:none;fill-opacity:1;stroke:#1a1a1a;stroke-width:0.465;stroke-linecap:round;stroke-linejoin:bevel;stroke-dasharray:none;stroke-dashoffset:0;stroke-opacity:1;paint-order:normal" d="m 95.504283,140.22309 c 0,0 0.57277,1.45942 1.20613,1.48363 0.63334,0.0242 1.20612,-1.48363 1.20612,-1.48363 v -2.22122 -2.25223 -2.22123 c 0,0 -0.55961,-1.50832 -1.20612,-1.48363 -0.6202,0.0237 -1.20613,1.48363 -1.20613,1.48363 v 2.23156 2.23157 z"/>
    <path id="path9-3-7-0-58" style="fill:none;fill-opacity:1;stroke:#ff0000;stroke-width:0.465;stroke-linecap:round;stroke-linejoin:bevel;stroke-dasharray:none;stroke-dashoffset:0;stroke-opacity:1;paint-order:normal" d="m 128.13474,120.23535 c 0,0 1.45942,-0.57277 1.48362,-1.20613 0.0242,-0.63334 -1.48362,-1.20612 -1.48362,-1.20612 h -2.22123 -2.25223 -2.22123 c 0,0 -1.50832,0.55961 -1.48363,1.20612 0.0237,0.6202 1.48363,1.20613 1.48363,1.20613 h 2.23156 2.23157 z"/>
    <path id="use12-4-9-61" style="fill:none;fill-opacity:1;stroke:#ff0000;stroke-width:0.465;stroke-linecap:round;stroke-linejoin:bevel;stroke-dasharray:none;stroke-dashoffset:0;stroke-opacity:1;paint-order:normal" d="m 117.85968,128.32969 c 0,0 0.57278,1.45942 1.20613,1.48362 0.63334,0.0242 1.20612,-1.48362 1.20612,-1.48362 v -2.22123 -2.25223 -2.22123 c 0,0 -0.55961,-1.50832 -1.20612,-1.48363 -0.6202,0.0237 -1.20613,1.48363 -1.20613,1.48363 v 2.23156 2.23157 z"/>
    <path id="use13-2-0-2" style="fill:none;fill-opacity:1;stroke:#ff0000;stroke-width:0.465;stroke-linecap:round;stroke-linejoin:bevel;stroke-dasharray:none;stroke-dashoffset:0;stroke-opacity:1;paint-order:normal" d="m 131.5167,121.63501 c 0,0 -0.57277,-1.45942 -1.20612,-1.48362 -0.63335,-0.0242 -1.20612,1.48362 -1.20612,1.48362 v 2.22123 2.25223 2.22123 c 0,0 0.5596,1.50832 1.20612,1.48363 0.62019,-0.0237 1.20612,-1.48363 1.20612,-1.48363 v -2.23156 -2.23157 z"/>
    <path id="use14-7-0-4" style="fill:none;fill-opacity:1;stroke:#1a1a1a;stroke-width:0.465;stroke-linecap:round;stroke-linejoin:bevel;stroke-dasharray:none;stroke-dashoffset:0;stroke-opacity:1;paint-order:normal" d="m 128.13474,132.20774 c 0,0 1.45942,-0.57278 1.48362,-1.20613 0.0242,-0.63334 -1.48362,-1.20612 -1.48362,-1.20612 h -2.22123 -2.25223 -2.22123 c 0,0 -1.50832,0.55961 -1.48363,1.20612 0.0237,0.6202 1.48363,1.20613 1.48363,1.20613 h 2.23156 2.23157 z"/>
    <path id="use15-7-6-25" style="fill:none;fill-opacity:1;stroke:#ff0000;stroke-width:0.465;stroke-linecap:round;stroke-linejoin:bevel;stroke-dasharray:none;stroke-dashoffset:0;stroke-opacity:1;paint-order:normal" d="m 121.2416,141.62276 c 0,0 -1.45942,0.57277 -1.48362,1.20612 -0.0242,0.63335 1.48362,1.20612 1.48362,1.20612 h 2.22123 2.25223 2.22123 c 0,0 1.50832,-0.55961 1.48363,-1.20612 -0.0237,-0.62019 -1.48363,-1.20612 -1.48363,-1.20612 h -2.23156 -2.23157 z"/>
    <path id="use16-9-1-8" style="fill:none;fill-opacity:1;stroke:#ff0000;stroke-width:0.465;stroke-linecap:round;stroke-linejoin:bevel;stroke-dasharray:none;stroke-dashoffset:0;stroke-opacity:1;paint-order:normal" d="m 131.51666,133.52841 c 0,0 -0.57278,-1.45942 -1.20613,-1.48362 -0.63334,-0.0242 -1.20612,1.48362 -1.20612,1.48362 v 2.22123 2.25223 2.22124 c 0,0 0.55961,1.50832 1.20612,1.48363 0.6202,-0.0237 1.20613,-1.48363 1.20613,-1.48363 v -2.23157 -2.23157 z"/>
    <path id="use17-3-3-6" style="fill:none;fill-opacity:1;stroke:#1a1a1a;stroke-width:0.465;stroke-linecap:round;stroke-linejoin:bevel;stroke-dasharray:none;stroke-dashoffset:0;stroke-opacity:1;paint-order:normal" d="m 117.85964,140.22309 c 0,0 0.57277,1.45942 1.20613,1.48363 0.63334,0.0242 1.20612,-1.48363 1.20612,-1.48363 v -2.22122 -2.25223 -2.22123 c 0,0 -0.55961,-1.50832 -1.20612,-1.48363 -0.6202,0.0237 -1.20613,1.48363 -1.20613,1.48363 v 2.23156 2.23157 z"/>
    <path id="path9-3-7-0-4" style="fill:none;fill-opacity:1;stroke:#ff0000;stroke-width:0.465;stroke-linecap:round;stroke-linejoin:bevel;stroke-dasharray:none;stroke-dashoffset:0;stroke-opacity:1;paint-order:normal" d="m 150.4901,120.23535 c 0,0 1.45942,-0.57277 1.48362,-1.20613 0.0242,-0.63334 -1.48362,-1.20612 -1.48362,-1.20612 h -2.22123 -2.25223 -2.22123 c 0,0 -1.50832,0.55961 -1.48363,1.20612 0.0237,0.6202 1.48363,1.20613 1.48363,1.20613 h 2.23156 2.23157 z"/>
    <path id="use12-4-9-618" style="fill:none;fill-opacity:1;stroke:#ff0000;stroke-width:0.465;stroke-linecap:round;stroke-linejoin:bevel;stroke-dasharray:none;stroke-dashoffset:0;stroke-opacity:1;paint-order:normal" d="m 140.21504,128.32969 c 0,0 0.57278,1.45942 1.20613,1.48362 0.63334,0.0242 1.20612,-1.48362 1.20612,-1.48362 v -2.22123 -2.25223 -2.22123 c 0,0 -0.55961,-1.50832 -1.20612,-1.48363 -0.6202,0.0237 -1.20613,1.48363 -1.20613,1.48363 v 2.23156 2.23157 z"/>
    <path id="use13-2-0-21" style="fill:none;fill-opacity:1;stroke:#ff0000;stroke-width:0.465;stroke-linecap:round;stroke-linejoin:bevel;stroke-dasharray:none;stroke-dashoffset:0;stroke-opacity:1;paint-order:normal" d="m 153.87206,121.63501 c 0,0 -0.57277,-1.45942 -1.20612,-1.48362 -0.63335,-0.0242 -1.20612,1.48362 -1.20612,1.48362 v 2.22123 2.25223 2.22123 c 0,0 0.5596,1.50832 1.20612,1.48363 0.62019,-0.0237 1.20612,-1.48363 1.20612,-1.48363 v -2.23156 -2.23157 z"/>
    <path id="use14-7-0-1" style="fill:none;fill-opacity:1;stroke:#1a1a1a;stroke-width:0.465;stroke-linecap:round;stroke-linejoin:bevel;stroke-dasharray:none;stroke-dashoffset:0;stroke-opacity:1;paint-order:normal" d="m 150.4901,132.20774 c 0,0 1.45942,-0.57278 1.48362,-1.20613 0.0242,-0.63334 -1.48362,-1.20612 -1.48362,-1.20612 h -2.22123 -2.25223 -2.22123 c 0,0 -1.50832,0.55961 -1.48363,1.20612 0.0237,0.6202 1.48363,1.20613 1.48363,1.20613 h 2.23156 2.23157 z"/>
    <path id="use15-7-6-97" style="fill:none;fill-opacity:1;stroke:#ff0000;stroke-width:0.465;stroke-linecap:round;stroke-linejoin:bevel;stroke-dasharray:none;stroke-dashoffset:0;stroke-opacity:1;paint-order:normal" d="m 143.59696,141.62276 c 0,0 -1.45942,0.57277 -1.48362,1.20612 -0.0242,0.63335 1.48362,1.20612 1.48362,1.20612 h 2.22123 2.25223 2.22123 c 0,0 1.50832,-0.55961 1.48363,-1.20612 -0.0237,-0.62019 -1.48363,-1.20612 -1.48363,-1.20612 h -2.23156 -2.23157 z"/>
    <path id="use16-9-1-62" style="fill:none;fill-opacity:1;stroke:#ff0000;stroke-width:0.465;stroke-linecap:round;stroke-linejoin:bevel;stroke-dasharray:none;stroke-dashoffset:0;stroke-opacity:1;paint-order:normal" d="m 153.87202,133.52841 c 0,0 -0.57278,-1.45942 -1.20613,-1.48362 -0.63334,-0.0242 -1.20612,1.48362 -1.20612,1.48362 v 2.22123 2.25223 2.22124 c 0,0 0.55961,1.50832 1.20612,1.48363 0.6202,-0.0237 1.20613,-1.48363 1.20613,-1.48363 v -2.23157 -2.23157 z"/>
    <path id="use17-3-3-9" style="fill:none;fill-opacity:1;stroke:#ff0000;stroke-width:0.465;stroke-linecap:round;stroke-linejoin:bevel;stroke-dasharray:none;stroke-dashoffset:0;stroke-opacity:1;paint-order:normal" d="m 140.215,140.22309 c 0,0 0.57277,1.45942 1.20613,1.48363 0.63334,0.0242 1.20612,-1.48363 1.20612,-1.48363 v -2.22122 -2.25223 -2.22123 c 0,0 -0.55961,-1.50832 -1.20612,-1.48363 -0.6202,0.0237 -1.20613,1.48363 -1.20613,1.48363 v 2.23156 2.23157 z"/>
  </g>
</svg>