<svg
    xmlns="http://www.w3.org/2000/svg"
    version="1.1"
    xmlns:xlink="http://www.w3.org/1999/xlink"
    style="font-size: 10pt; overflow: visible;"
    viewBox="-118.49684143066406 -159.7214813232422 318.7088317871094 123.92620849609375"
>
    <defs>
        <symbol id="path_american-voltage-source">
            <defs>
                <path
                    id="path_american-voltage-source_a"
                    d="M6.56538-2.2914c.16937 0 .3487 0 .3487-.19927s-.17935-.19924-.34871-.19924h-5.38978c-.16936 0-.34869 0-.34869.19925s.17934.19925.3487.19925z"
                />
                <path
                    id="path_american-voltage-source_b"
                    d="M4.07472-2.2914h2.77958c.13947 0 .32876 0 .32876-.19927s-.18929-.19924-.32876-.19924h-2.77958v-2.78954c0-.13948 0-.32877-.19925-.32877s-.19927.1893-.19927.32877v2.78954h-2.78953c-.13947 0-.32876 0-.32876.19925s.18929.19925.32877.19925h2.78952v2.78954c.00001.13948.00001.32877.19927.32877s.19925-.1893.19925-.32877z"
                />
            </defs>
            <g stroke="currentStroke" stroke-miterlimit="10" stroke-width=".4">
                <path
                    fill="none"
                    stroke-width="1.06267"
                    d="M16.40544.53136c-8.7671 0-15.87408 7.10697-15.87408 15.87408s7.10697 15.87408 15.87408 15.87408 15.87408-7.10697 15.87408-15.87408-7.10697-15.87408-15.87408-15.87408Zm0 15.87408"
                />
                <g stroke="none">
                    <use
                        xlink:href="#path_american-voltage-source_a"
                        x="-59.69594"
                        y="-59.69594"
                        transform="rotate(-90 23.99077 -82.01407)scale(1.33333)"
                        fill="currentColor"
                    />
                    <use
                        xlink:href="#path_american-voltage-source_b"
                        x="-59.69594"
                        y="-59.69594"
                        transform="rotate(-90 17.30681 -75.33011)scale(1.33333)"
                        fill="currentColor"
                    />
                </g>
            </g>
        </symbol>
        <path
            id="MJX-19-TEX-I-1D460"
            d="M131 289Q131 321 147 354T203 415T300 442Q362 442 390 415T419 355Q419 323 402 308T364 292Q351 292 340 300T328 326Q328 342 337 354T354 372T367 378Q368 378 368 379Q368 382 361 388T336 399T297 405Q249 405 227 379T204 326Q204 301 223 291T278 274T330 259Q396 230 396 163Q396 135 385 107T352 51T289 7T195 -10Q118 -10 86 19T53 87Q53 126 74 143T118 160Q133 160 146 151T160 120Q160 94 142 76T111 58Q109 57 108 57T107 55Q108 52 115 47T146 34T201 27Q237 27 263 38T301 66T318 97T323 122Q323 150 302 164T254 181T195 196T148 231Q131 256 131 289Z"
        />
        <path
            id="MJX-19-TEX-I-1D449"
            d="M52 648Q52 670 65 683H76Q118 680 181 680Q299 680 320 683H330Q336 677 336 674T334 656Q329 641 325 637H304Q282 635 274 635Q245 630 242 620Q242 618 271 369T301 118L374 235Q447 352 520 471T595 594Q599 601 599 609Q599 633 555 637Q537 637 537 648Q537 649 539 661Q542 675 545 679T558 683Q560 683 570 683T604 682T668 681Q737 681 755 683H762Q769 676 769 672Q769 655 760 640Q757 637 743 637Q730 636 719 635T698 630T682 623T670 615T660 608T652 599T645 592L452 282Q272 -9 266 -16Q263 -18 259 -21L241 -22H234Q216 -22 216 -15Q213 -9 177 305Q139 623 138 626Q133 637 76 637H59Q52 642 52 648Z"
        />
        <symbol id="path_american-resistor">
            <g
                fill="none"
                stroke="currentStroke"
                stroke-miterlimit="10"
                stroke-width=".4"
            >
                <path
                    stroke-linejoin="bevel"
                    stroke-width="1.06267"
                    d="m.53136 8.46838 4.05887-7.93703 7.05509 15.87407 7.05508-15.87407 7.05508 15.87407 7.05509-15.87407 7.05509 15.87407 4.05887-7.93704"
                />
            </g>
        </symbol>
        <path
            id="MJX-6-TEX-I-1D445"
            d="M230 637Q203 637 198 638T193 649Q193 676 204 682Q206 683 378 683Q550 682 564 680Q620 672 658 652T712 606T733 563T739 529Q739 484 710 445T643 385T576 351T538 338L545 333Q612 295 612 223Q612 212 607 162T602 80V71Q602 53 603 43T614 25T640 16Q668 16 686 38T712 85Q717 99 720 102T735 105Q755 105 755 93Q755 75 731 36Q693 -21 641 -21H632Q571 -21 531 4T487 82Q487 109 502 166T517 239Q517 290 474 313Q459 320 449 321T378 323H309L277 193Q244 61 244 59Q244 55 245 54T252 50T269 48T302 46H333Q339 38 339 37T336 19Q332 6 326 0H311Q275 2 180 2Q146 2 117 2T71 2T50 1Q33 1 33 10Q33 12 36 24Q41 43 46 45Q50 46 61 46H67Q94 46 127 49Q141 52 146 61Q149 65 218 339T287 628Q287 635 230 637ZM630 554Q630 586 609 608T523 636Q521 636 500 636T462 637H440Q393 637 386 627Q385 624 352 494T319 361Q319 360 388 360Q466 361 492 367Q556 377 592 426Q608 449 619 486T630 554Z"
        />
        <symbol id="path_closing-switch">
            <g stroke="currentStroke" stroke-miterlimit="10" stroke-width=".4">
                <g stroke-width=".79999">
                    <path
                        fill="none"
                        stroke-width="1.06267"
                        d="m.53135 11.64328 14.81596-9.25996"
                    />
                    <g stroke-linejoin="bevel">
                        <path
                            fill="none"
                            stroke-width="1.06267"
                            d="M.53135.53136c3.96945 0 7.63852 2.11834 9.62322 5.55597.94014 1.6284 1.44028 3.44756 1.48523 5.2844"
                        />
                        <path
                            d="M10.97317 15.44383c.41059-1.7124 1.21865-4.79213 2.85018-6.8038-1.96353 1.65347-3.34395 1.60109-5.1765-.19646 1.47436 2.12956 2.04669 5.26166 2.32631 7.00026"
                            stroke="none"
                            fill="currentColor"
                        />
                    </g>
                </g>
            </g>
        </symbol>
        <path
            id="MJX-24-TEX-N-3D"
            d="M56 347Q56 360 70 367H707Q722 359 722 347Q722 336 708 328L390 327H72Q56 332 56 347ZM56 153Q56 168 72 173H708Q722 163 722 153Q722 140 707 133H70Q56 140 56 153Z"
        />
        <path
            id="MJX-24-TEX-N-30"
            d="M96 585Q152 666 249 666Q297 666 345 640T423 548Q460 465 460 320Q460 165 417 83Q397 41 362 16T301 -15T250 -22Q224 -22 198 -16T137 16T82 83Q39 165 39 320Q39 494 96 585ZM321 597Q291 629 250 629Q208 629 178 597Q153 571 145 525T137 333Q137 175 145 125T181 46Q209 16 250 16Q290 16 318 46Q347 76 354 130T362 333Q362 478 354 524T321 597Z"
        />
        <path
            id="MJX-24-TEX-I-1D461"
            d="M26 385Q19 392 19 395Q19 399 22 411T27 425Q29 430 36 430T87 431H140L159 511Q162 522 166 540T173 566T179 586T187 603T197 615T211 624T229 626Q247 625 254 615T261 596Q261 589 252 549T232 470L222 433Q222 431 272 431H323Q330 424 330 420Q330 398 317 385H210L174 240Q135 80 135 68Q135 26 162 26Q197 26 230 60T283 144Q285 150 288 151T303 153H307Q322 153 322 145Q322 142 319 133Q314 117 301 95T267 48T216 6T155 -11Q125 -11 98 4T59 56Q57 64 57 83V101L92 241Q127 382 128 383Q128 385 77 385H26Z"
        />
        <symbol id="path_american-inductor">
            <g
                fill="none"
                stroke="currentStroke"
                stroke-miterlimit="10"
                stroke-width=".4"
            >
                <path
                    stroke-linejoin="bevel"
                    stroke-width="1.06267"
                    d="M.53136 8.46801c0-4.38335 2.42844-7.93665 5.42414-7.93665 2.99572 0 5.42417 3.5533 5.42417 7.93665 0-4.38335 2.42844-7.93665 5.42416-7.93665 2.9957 0 5.42415 3.5533 5.42415 7.93665 0-4.38335 2.42846-7.93665 5.42416-7.93665s5.42416 3.5533 5.42416 7.93665c0-4.38335 2.42845-7.93665 5.42414-7.93665 2.99572 0 5.42417 3.5533 5.42417 7.93665"
                />
            </g>
        </symbol>
        <path
            id="MJX-20-TEX-I-1D43F"
            d="M228 637Q194 637 192 641Q191 643 191 649Q191 673 202 682Q204 683 217 683Q271 680 344 680Q485 680 506 683H518Q524 677 524 674T522 656Q517 641 513 637H475Q406 636 394 628Q387 624 380 600T313 336Q297 271 279 198T252 88L243 52Q243 48 252 48T311 46H328Q360 46 379 47T428 54T478 72T522 106T564 161Q580 191 594 228T611 270Q616 273 628 273H641Q647 264 647 262T627 203T583 83T557 9Q555 4 553 3T537 0T494 -1Q483 -1 418 -1T294 0H116Q32 0 32 10Q32 17 34 24Q39 43 44 45Q48 46 59 46H65Q92 46 125 49Q139 52 144 61Q147 65 216 339T285 628Q285 635 228 637Z"
        />
        <symbol id="path_capacitor">
            <g
                fill="none"
                stroke="currentStroke"
                stroke-miterlimit="10"
                stroke-width=".4"
            >
                <path
                    stroke-width="1.06267"
                    d="M.53137.53136v31.74816m10.58243-31.74816v31.74816"
                />
            </g>
        </symbol>
        <path
            id="MJX-21-TEX-I-1D436"
            d="M50 252Q50 367 117 473T286 641T490 704Q580 704 633 653Q642 643 648 636T656 626L657 623Q660 623 684 649Q691 655 699 663T715 679T725 690L740 705H746Q760 705 760 698Q760 694 728 561Q692 422 692 421Q690 416 687 415T669 413H653Q647 419 647 422Q647 423 648 429T650 449T651 481Q651 552 619 605T510 659Q484 659 454 652T382 628T299 572T226 479Q194 422 175 346T156 222Q156 108 232 58Q280 24 350 24Q441 24 512 92T606 240Q610 253 612 255T628 257Q648 257 648 248Q648 243 647 239Q618 132 523 55T319 -22Q206 -22 128 53T50 252Z"
        />
    </defs>
    <g class="" style="">
        <use
            xlink:href="#path_american-voltage-source"
            fill="#fff"
            stroke="#000"
            style="color: #000;"
            transform="matrix(6.123233995736766e-17,1,-1,6.123233995736766e-17,-68.63393007874016,-101.44481007874015)"
        />
        <line
            x1="-85.03937007874016"
            y1="-132.28346456692913"
            x2="-85.03937007874016"
            y2="-100.91345007874014"
            fill="none"
            stroke-width="0.5"
            stroke="#000"
        />
        <line
            x1="-85.03937007874016"
            y1="-37.79527559055118"
            x2="-85.03937007874016"
            y2="-69.16529007874016"
            fill="none"
            stroke-width="0.5"
            stroke="#000"
        />
        <g
            class="pointerNone"
            transform="matrix(1,0,0,1,-117.19679559131774,-81.49906446426871)"
            fill="#000"
        >
            <g
                transform="matrix(0.01346067275759926,0,0,0.013463028953927472,0,0)"
            >
                <g
                    stroke="currentColor"
                    fill="inherit"
                    stroke-width="0"
                    transform="scale(1,-1)"
                >
                    <g>
                        <g transform="translate(616,-150) scale(0.707)">
                            <use xlink:href="#MJX-19-TEX-I-1D460" />
                        </g>
                        <use xlink:href="#MJX-19-TEX-I-1D449" />
                    </g>
                </g>
            </g>
        </g>
    </g>
    <g class="" style="">
        <use
            xlink:href="#path_american-resistor"
            fill="#fff"
            stroke="#000"
            style="color: #000;"
            transform="matrix(1,0,0,1,-55.29886614173228,-140.75184456692912)"
        />
        <line
            x1="-85.03937007874015"
            y1="-132.28346456692913"
            x2="-54.236166141732284"
            y2="-132.28346456692913"
            fill="none"
            stroke-width="0.5"
            stroke="#000"
        />
        <line
            x1="18.89763779527559"
            y1="-132.28346456692913"
            x2="-11.90554614173228"
            y2="-132.28346456692913"
            fill="none"
            stroke-width="0.5"
            stroke="#000"
        />
        <g
            class="pointerNone"
            transform="matrix(1,0,0,1,-38.37380254667575,-145.56999629624252)"
            fill="#000"
        >
            <g
                transform="matrix(0.013459228519031943,0,0,0.013462780477635716,0,0)"
            >
                <g
                    stroke="currentColor"
                    fill="inherit"
                    stroke-width="0"
                    transform="scale(1,-1)"
                >
                    <use xlink:href="#MJX-6-TEX-I-1D445" />
                </g>
            </g>
        </g>
    </g>
    <g class="" style="">
        <use
            xlink:href="#path_closing-switch"
            fill="#fff"
            stroke="#000"
            style="color: #000;"
            transform="matrix(1,0,0,1,32.728385039370075,-143.92674456692913)"
        />
        <line
            x1="18.89763779527559"
            y1="-132.28346456692913"
            x2="33.259745039370074"
            y2="-132.28346456692913"
            fill="none"
            stroke-width="0.5"
            stroke="#000"
        />
        <line
            x1="66.14173228346456"
            y1="-132.28346456692913"
            x2="51.77965503937007"
            y2="-132.28346456692913"
            fill="none"
            stroke-width="0.5"
            stroke="#000"
        />
        <g
            class="pointerNone"
            transform="matrix(1,0,0,1,27.89100454196216,-148.75826013443833)"
            fill="#000"
        >
            <g
                transform="matrix(0.013460324365853087,0,0,0.013458306306656112,0,0)"
            >
                <g
                    stroke="currentColor"
                    fill="inherit"
                    stroke-width="0"
                    transform="scale(1,-1)"
                >
                    <g>
                        <g transform="translate(638.8,0)">
                            <use xlink:href="#MJX-24-TEX-N-3D" />
                        </g>
                        <g transform="translate(1694.6,0)">
                            <use xlink:href="#MJX-24-TEX-N-30" />
                        </g>
                        <use xlink:href="#MJX-24-TEX-I-1D461" />
                    </g>
                </g>
            </g>
        </g>
    </g>
    <g class="" style="">
        <use
            xlink:href="#path_american-inductor"
            fill="#fff"
            stroke="#000"
            style="color: #000;"
            transform="matrix(1,0,0,1,100.60664566929131,-140.53895456692914)"
        />
        <line
            x1="77.95275590551178"
            y1="-132.28346456692913"
            x2="101.66934566929132"
            y2="-132.28346456692913"
            fill="none"
            stroke-width="0.5"
            stroke="#000"
        />
        <line
            x1="167.71653543307087"
            y1="-132.28346456692913"
            x2="143.99996566929133"
            y2="-132.28346456692913"
            fill="none"
            stroke-width="0.5"
            stroke="#000"
        />
        <g
            class="pointerNone"
            transform="matrix(1,0,0,1,118.2639013038376,-145.09233197373277)"
            fill="#000"
        >
            <g
                transform="matrix(0.013463165187719948,0,0,0.013458585805868112,0,0)"
            >
                <g
                    stroke="currentColor"
                    fill="inherit"
                    stroke-width="0"
                    transform="scale(1,-1)"
                >
                    <use xlink:href="#MJX-20-TEX-I-1D43F" />
                </g>
            </g>
        </g>
    </g>
    <g class="" style="">
        <use
            xlink:href="#path_capacitor"
            fill="#fff"
            stroke="#000"
            style="color: #000;"
            transform="matrix(6.123233995736766e-17,1,-1,6.123233995736766e-17,184.12197543307087,-90.86196007874015)"
        />
        <line
            x1="167.71653543307087"
            y1="-132.28346456692913"
            x2="167.71653543307087"
            y2="-90.33059007874016"
            fill="none"
            stroke-width="0.5"
            stroke="#000"
        />
        <line
            x1="167.71653543307087"
            y1="-37.79527559055118"
            x2="167.71653543307087"
            y2="-79.74816007874016"
            fill="none"
            stroke-width="0.5"
            stroke="#000"
        />
        <g
            class="pointerNone"
            transform="matrix(1,0,0,1,187.984549729275,-80.44195367783072)"
            fill="#000"
        >
            <g
                transform="matrix(0.013457175989777052,0,0,0.013462420109592579,0,0)"
            >
                <g
                    stroke="currentColor"
                    fill="inherit"
                    stroke-width="0"
                    transform="scale(1,-1)"
                >
                    <use xlink:href="#MJX-21-TEX-I-1D436" />
                </g>
            </g>
        </g>
    </g>
    <g class="">
        <polyline
            points="167.71653543307087,-37.795275590551185 -85.03937007874015,-37.795275590551185 -85.03937007874015,-37.79527559055118"
            fill="none"
            stroke-dasharray="0.4pt 0pt"
            stroke-opacity="1"
            stroke-width="0.5333333333333333"
            stroke="#000"
        />
    </g>
    <g class="">
        <polyline
            points="66.14173228346456,-132.28346456692913 77.95275590551178,-132.28346456692913"
            fill="none"
            stroke-dasharray="0.4pt 0pt"
            stroke-opacity="1"
            stroke-width="0.5333333333333333"
            stroke="#000"
        />
    </g>
</svg>
