<svg xmlns="http://www.w3.org/2000/svg" xmlns:xlink="http://www.w3.org/1999/xlink" version="1.1" width="165.108052pt" height="150.835772pt" viewBox="-63.698842 -63.700025 165.108052 150.835772">
<defs>
<path id="g1-81" d="M4.770112-.062765C5.729514-.457285 6.644085-1.560149 6.644085-3.039601C6.644085-4.868742 5.254296-6.321295 3.577584-6.321295S.511083-4.859776 .511083-3.039601S1.909838 .19726 3.577584 .19726C3.891407 .19726 4.23213 .134496 4.447323 .071731C4.608717 .959402 4.743213 1.739477 5.577086 1.739477C6.509589 1.739477 6.697883 .537983 6.697883 .080697C6.697883 0 6.697883-.107597 6.58132-.107597C6.518555-.107597 6.48269-.053798 6.473724-.008966C6.401993 .771108 5.792279 .824907 5.648817 .824907C5.164633 .824907 4.976339 .439352 4.770112-.062765ZM2.932005-.179328C2.062267-.511083 1.398755-1.43462 1.398755-3.039601C1.398755-5.263263 2.645081-6.070237 3.577584-6.070237S5.756413-5.272229 5.756413-3.039601C5.756413-1.85604 5.397758-.905604 4.62665-.385554C4.447323-.833873 4.169365-1.33599 3.58655-1.33599C3.147198-1.33599 2.824408-.986301 2.824408-.573848C2.824408-.358655 2.923039-.188294 2.932005-.179328ZM4.375592-.242092C4.115567-.107597 3.81071-.053798 3.577584-.053798C3.138232-.053798 3.048568-.430386 3.048568-.573848C3.048568-.842839 3.245828-1.111831 3.595517-1.111831C4.070735-1.111831 4.259029-.735243 4.375592-.242092Z"/>
<path id="g0-48" d="M3.287671-1.906849C3.287671-2.343213 3.287671-3.975093 1.823163-3.975093S.358655-2.343213 .358655-1.906849C.358655-1.476463 .358655 .125529 1.823163 .125529S3.287671-1.476463 3.287671-1.906849ZM1.823163-.065753C1.572105-.065753 1.165629-.185305 1.022167-.681445C.926526-1.028144 .926526-1.613948 .926526-1.984558C.926526-2.385056 .926526-2.84533 1.010212-3.16812C1.159651-3.706102 1.613948-3.783811 1.823163-3.783811C2.098132-3.783811 2.492653-3.652304 2.624159-3.198007C2.713823-2.881196 2.719801-2.444832 2.719801-1.984558C2.719801-1.601993 2.719801-.998257 2.618182-.663512C2.450809-.143462 2.020423-.065753 1.823163-.065753Z"/>
<path id="g0-49" d="M2.145953-3.795766C2.145953-3.975093 2.122042-3.975093 1.942715-3.975093C1.548194-3.592528 .938481-3.592528 .723288-3.592528V-3.359402C.878705-3.359402 1.273225-3.359402 1.63188-3.526775V-.508095C1.63188-.310834 1.63188-.233126 1.016189-.233126H.759153V0C1.08792-.02391 1.554172-.02391 1.888917-.02391S2.689913-.02391 3.01868 0V-.233126H2.761644C2.145953-.233126 2.145953-.310834 2.145953-.508095V-3.795766Z"/>
<path id="g0-50" d="M3.21594-1.117808H2.99477C2.982814-1.034122 2.923039-.639601 2.833375-.573848C2.791532-.537983 2.307347-.537983 2.223661-.537983H1.105853L1.870984-1.159651C2.074222-1.321046 2.606227-1.703611 2.791532-1.882939C2.970859-2.062267 3.21594-2.367123 3.21594-2.791532C3.21594-3.53873 2.540473-3.975093 1.739477-3.975093C.968369-3.975093 .430386-3.466999 .430386-2.905106C.430386-2.600249 .687422-2.564384 .753176-2.564384C.902615-2.564384 1.075965-2.67198 1.075965-2.887173C1.075965-3.01868 .998257-3.209963 .735243-3.209963C.872727-3.514819 1.23736-3.741968 1.649813-3.741968C2.27746-3.741968 2.612204-3.275716 2.612204-2.791532C2.612204-2.367123 2.331258-1.93076 1.912827-1.548194L.496139-.251059C.436364-.191283 .430386-.185305 .430386 0H3.030635L3.21594-1.117808Z"/>
<path id="g0-51" d="M1.75741-1.984558C2.265504-1.984558 2.606227-1.643836 2.606227-1.034122C2.606227-.376588 2.211706-.089664 1.775342-.089664C1.613948-.089664 .998257-.125529 .729265-.472229C.962391-.496139 1.058032-.651557 1.058032-.812951C1.058032-1.016189 .91457-1.153674 .71731-1.153674C.555915-1.153674 .376588-1.052055 .376588-.800996C.376588-.209215 1.034122 .125529 1.793275 .125529C2.677958 .125529 3.269738-.442341 3.269738-1.034122C3.269738-1.470486 2.934994-1.93076 2.223661-2.110087C2.69589-2.265504 3.078456-2.64807 3.078456-3.138232C3.078456-3.616438 2.516563-3.975093 1.799253-3.975093C1.099875-3.975093 .56787-3.652304 .56787-3.162142C.56787-2.905106 .765131-2.833375 .884682-2.833375C1.0401-2.833375 1.201494-2.940971 1.201494-3.150187C1.201494-3.335492 1.069988-3.443088 .908593-3.466999C1.189539-3.777833 1.733499-3.777833 1.787298-3.777833C2.092154-3.777833 2.47472-3.634371 2.47472-3.138232C2.47472-2.809465 2.289415-2.235616 1.691656-2.199751C1.58406-2.193773 1.422665-2.181818 1.368867-2.181818C1.309091-2.175841 1.243337-2.169863 1.243337-2.080199C1.243337-1.984558 1.309091-1.984558 1.41071-1.984558H1.75741Z"/>
<path id="g2-48" d="M4.582814-3.188045C4.582814-3.985056 4.533001-4.782067 4.184309-5.519303C3.726027-6.475716 2.909091-6.635118 2.49066-6.635118C1.892902-6.635118 1.165629-6.37609 .757161-5.449564C.438356-4.762142 .388543-3.985056 .388543-3.188045C.388543-2.440847 .428394-1.544209 .836862-.787049C1.265255 .019925 1.992528 .219178 2.480697 .219178C3.01868 .219178 3.775841 .009963 4.214197-.936488C4.533001-1.62391 4.582814-2.400996 4.582814-3.188045ZM2.480697 0C2.092154 0 1.504359-.249066 1.325031-1.205479C1.215442-1.803238 1.215442-2.719801 1.215442-3.307597C1.215442-3.945205 1.215442-4.60274 1.295143-5.140722C1.484433-6.326276 2.231631-6.41594 2.480697-6.41594C2.809465-6.41594 3.466999-6.236613 3.656289-5.250311C3.755915-4.692403 3.755915-3.935243 3.755915-3.307597C3.755915-2.560399 3.755915-1.882939 3.646326-1.24533C3.496887-.298879 2.929016 0 2.480697 0Z"/>
<path id="g2-49" d="M2.929016-6.37609C2.929016-6.615193 2.929016-6.635118 2.699875-6.635118C2.082192-5.997509 1.205479-5.997509 .886675-5.997509V-5.688667C1.085928-5.688667 1.673724-5.688667 2.191781-5.947696V-.787049C2.191781-.428394 2.161893-.308842 1.265255-.308842H.946451V0C1.295143-.029888 2.161893-.029888 2.560399-.029888S3.825654-.029888 4.174346 0V-.308842H3.855542C2.958904-.308842 2.929016-.418431 2.929016-.787049V-6.37609Z"/>
<path id="g2-120" d="M2.859278-2.34122C3.158157-2.719801 3.536737-3.20797 3.775841-3.466999C4.084682-3.825654 4.493151-3.975093 4.961395-3.985056V-4.293898C4.702366-4.273973 4.403487-4.26401 4.144458-4.26401C3.845579-4.26401 3.317559-4.283935 3.188045-4.293898V-3.985056C3.39726-3.965131 3.476961-3.835616 3.476961-3.676214S3.377335-3.387298 3.327522-3.327522L2.709838-2.550436L1.932752-3.556663C1.843088-3.656289 1.843088-3.676214 1.843088-3.73599C1.843088-3.88543 1.992528-3.975093 2.191781-3.985056V-4.293898C1.932752-4.283935 1.275218-4.26401 1.115816-4.26401C.9066-4.26401 .438356-4.273973 .169365-4.293898V-3.985056C.86675-3.985056 .876712-3.975093 1.344956-3.377335L2.331258-2.092154L1.39477-.9066C.916563-.328767 .328767-.308842 .119552-.308842V0C.37858-.019925 .687422-.029888 .946451-.029888C1.235367-.029888 1.653798-.009963 1.892902 0V-.308842C1.673724-.33873 1.603985-.468244 1.603985-.617684C1.603985-.836862 1.892902-1.165629 2.500623-1.882939L3.257783-.886675C3.337484-.777086 3.466999-.617684 3.466999-.557908C3.466999-.468244 3.377335-.318804 3.108344-.308842V0C3.407223-.009963 3.965131-.029888 4.184309-.029888C4.4533-.029888 4.841843-.019925 5.140722 0V-.308842C4.60274-.308842 4.423412-.328767 4.194271-.617684L2.859278-2.34122Z"/>
</defs>
<g id="page1">
<path d="M-12.03125 87.085937H101.3594M-12.03125 58.7422H101.3594M-12.03125 30.3945H101.3594M-12.03125 2.0469H101.3594M-12.03125-26.2894H101.3594M-12.03125 87.085937V-26.3004M16.3164 87.085937V-26.3004M44.6641 87.085937V-26.3004M73.0117 87.085937V-26.3004M101.3474 87.085937V-26.3004" stroke="#000" fill="none" stroke-width=".09962"/>
<g transform="matrix(1 0 0 1 45.3749 -144.6606)">
<use x="-12.029642" y="87.087591" xlink:href="#g1-81"/>
<use x="-4.862123" y="89.32917" xlink:href="#g0-49"/>
<use x="-.711079" y="87.087591" xlink:href="#g1-81"/>
<use x="6.45644" y="89.32917" xlink:href="#g0-48"/>
</g>
<g transform="matrix(1 0 0 1 -51.6692 -54.7509)">
<use x="-12.029642" y="87.087591" xlink:href="#g1-81"/>
<use x="-4.862123" y="89.32917" xlink:href="#g0-51"/>
<use x="-.711079" y="87.087591" xlink:href="#g1-81"/>
<use x="6.45644" y="89.32917" xlink:href="#g0-50"/>
</g>
<g transform="matrix(1 0 0 1 -27.45674 17.3836)">
<use x="24.618663" y="-54.644631" xlink:href="#g2-48"/>
<use x="29.600002" y="-54.644631" xlink:href="#g2-48"/>
</g>
<g transform="matrix(1 0 0 1 -27.4567 17.3836)">
<use x="52.965108" y="-54.644631" xlink:href="#g2-48"/>
<use x="57.946447" y="-54.644631" xlink:href="#g2-49"/>
</g>
<g transform="matrix(1 0 0 1 -27.4567 17.3836)">
<use x="81.311552" y="-54.644631" xlink:href="#g2-49"/>
<use x="86.292891" y="-54.644631" xlink:href="#g2-49"/>
</g>
<g transform="matrix(1 0 0 1 -27.4567 17.3836)">
<use x="109.657996" y="-54.644631" xlink:href="#g2-49"/>
<use x="114.639335" y="-54.644631" xlink:href="#g2-48"/>
</g>
<g transform="matrix(1 0 0 1 -27.45672 17.3836)">
<use x="-3.727781" y="-26.298187" xlink:href="#g2-48"/>
<use x="1.253558" y="-26.298187" xlink:href="#g2-48"/>
</g>
<g transform="matrix(1 0 0 1 -27.45672 17.38364)">
<use x="-3.727781" y="2.048258" xlink:href="#g2-48"/>
<use x="1.253558" y="2.048258" xlink:href="#g2-49"/>
</g>
<g transform="matrix(1 0 0 1 -27.45672 17.3836)">
<use x="-3.727781" y="30.394702" xlink:href="#g2-49"/>
<use x="1.253558" y="30.394702" xlink:href="#g2-49"/>
</g>
<g transform="matrix(1 0 0 1 -27.45672 17.3836)">
<use x="-3.727781" y="58.741146" xlink:href="#g2-49"/>
<use x="1.253558" y="58.741146" xlink:href="#g2-48"/>
</g>
<g transform="matrix(1 0 0 1 40.0295 -96.00362)">
<use x="-12.029642" y="87.087591" xlink:href="#g2-49"/>
</g>
<g transform="matrix(1 0 0 1 96.7231 -96.00362)">
<use x="-12.029642" y="87.087591" xlink:href="#g2-49"/>
</g>
<g transform="matrix(1 0 0 1 40.0295 -67.6568)">
<use x="-12.029642" y="87.087591" xlink:href="#g2-49"/>
</g>
<g transform="matrix(1 0 0 1 96.7231 -67.6568)">
<use x="-12.029642" y="87.087591" xlink:href="#g2-49"/>
</g>
<g transform="matrix(1 0 0 1 96.5848 -12.0287)">
<use x="-12.029642" y="87.087591" xlink:href="#g2-120"/>
</g>
<g transform="matrix(1 0 0 1 68.238 -12.0287)">
<use x="-12.029642" y="87.087591" xlink:href="#g2-120"/>
</g>
<g transform="matrix(1 0 0 1 11.544329 -40.3755)">
<use x="-12.029642" y="87.087591" xlink:href="#g2-120"/>
</g>
<g transform="matrix(1 0 0 1 39.8911 -40.3755)">
<use x="-12.029642" y="87.087591" xlink:href="#g2-120"/>
</g>
<g transform="matrix(1 0 0 1 96.5848 -40.3755)">
<use x="-12.029642" y="87.087591" xlink:href="#g2-120"/>
</g>
<g transform="matrix(1 0 0 1 68.238 -40.3755)">
<use x="-12.029642" y="87.087591" xlink:href="#g2-120"/>
</g>
<g transform="matrix(1 0 0 1 11.68271 -96.00362)">
<use x="-12.029642" y="87.087591" xlink:href="#g2-48"/>
</g>
<g transform="matrix(1 0 0 1 68.3763 -96.00362)">
<use x="-12.029642" y="87.087591" xlink:href="#g2-48"/>
</g>
<g transform="matrix(1 0 0 1 11.68271 -67.6568)">
<use x="-12.029642" y="87.087591" xlink:href="#g2-48"/>
</g>
<g transform="matrix(1 0 0 1 68.3763 -67.6568)">
<use x="-12.029642" y="87.087591" xlink:href="#g2-48"/>
</g>
<g transform="matrix(1 0 0 1 11.68271 -10.9632)">
<use x="-12.029642" y="87.087591" xlink:href="#g2-48"/>
</g>
<g transform="matrix(1 0 0 1 40.0295 -10.9632)">
<use x="-12.029642" y="87.087591" xlink:href="#g2-48"/>
</g>
<path d="M78.6797-17.6404V78.42969C78.6797 80.08203 80.0195 81.41797 81.668 81.41797H92.6994C94.3514 81.41797 95.6874 80.08203 95.6874 78.42969V-17.6404C95.6874-19.2934 94.3514-20.6294 92.6994-20.6294H81.668C80.0195-20.6294 78.6797-19.2934 78.6797-17.6404Z" fill="#f00" fill-opacity=".25"/>
<path d="M78.6797-17.6404V78.42969C78.6797 80.08203 80.0195 81.41797 81.668 81.41797H92.6994C94.3514 81.41797 95.6874 80.08203 95.6874 78.42969V-17.6404C95.6874-19.2934 94.3514-20.6294 92.6994-20.6294H81.668C80.0195-20.6294 78.6797-19.2934 78.6797-17.6404Z" stroke="#000" fill="none" stroke-width=".3985" stroke-miterlimit="10"/>
<path d="M21.9883-17.6404V21.7344C21.9883 23.3867 23.3242 24.7266 24.9766 24.7266H36.0078C37.6563 24.7266 38.9961 23.3867 38.9961 21.7344V-17.6404C38.9961-19.2934 37.6563-20.6294 36.0078-20.6294H24.9766C23.3242-20.6294 21.9883-19.2934 21.9883-17.6404Z" fill="#0f0" fill-opacity=".25"/>
<path d="M21.9883-17.6404V21.7344C21.9883 23.3867 23.3242 24.7266 24.9766 24.7266H36.0078C37.6563 24.7266 38.9961 23.3867 38.9961 21.7344V-17.6404C38.9961-19.2934 37.6563-20.6294 36.0078-20.6294H24.9766C23.3242-20.6294 21.9883-19.2934 21.9883-17.6404Z" stroke="#000" fill="none" stroke-width=".3985" stroke-miterlimit="10"/>
</g>
</svg>