<svg xmlns="http://www.w3.org/2000/svg" xmlns:xlink="http://www.w3.org/1999/xlink" version="1.1" width="800" height="800"><defs/><g transform="scale(2,2)"><g id="background-ec0794c5"><rect fill="white" stroke="none" x="0" y="0" width="400" height="400" class="dcg-svg-background"/></g><g id="background-images-ec0794c5"/><g id="graphpaper-ec0794c5"><g id="grid-ec0794c5"><g><path fill="none" stroke="rgb(0,0,0)" class="dcg-svg-minor-gridline" paint-order="fill stroke markers" d=" M 11.5 0 L 11.5 400" stroke-opacity="0.5" stroke-miterlimit="10" stroke-dasharray=""/><path fill="none" stroke="rgb(0,0,0)" class="dcg-svg-minor-gridline" paint-order="fill stroke markers" d=" M 30.5 0 L 30.5 400" stroke-opacity="0.5" stroke-miterlimit="10" stroke-dasharray=""/><path fill="none" stroke="rgb(0,0,0)" class="dcg-svg-minor-gridline" paint-order="fill stroke markers" d=" M 50.5 0 L 50.5 400" stroke-opacity="0.5" stroke-miterlimit="10" stroke-dasharray=""/><path fill="none" stroke="rgb(0,0,0)" class="dcg-svg-minor-gridline" paint-order="fill stroke markers" d=" M 69.5 0 L 69.5 400" stroke-opacity="0.5" stroke-miterlimit="10" stroke-dasharray=""/><path fill="none" stroke="rgb(0,0,0)" class="dcg-svg-minor-gridline" paint-order="fill stroke markers" d=" M 108.5 0 L 108.5 400" stroke-opacity="0.5" stroke-miterlimit="10" stroke-dasharray=""/><path fill="none" stroke="rgb(0,0,0)" class="dcg-svg-minor-gridline" paint-order="fill stroke markers" d=" M 127.5 0 L 127.5 400" stroke-opacity="0.5" stroke-miterlimit="10" stroke-dasharray=""/><path fill="none" stroke="rgb(0,0,0)" class="dcg-svg-minor-gridline" paint-order="fill stroke markers" d=" M 146.5 0 L 146.5 400" stroke-opacity="0.5" stroke-miterlimit="10" stroke-dasharray=""/><path fill="none" stroke="rgb(0,0,0)" class="dcg-svg-minor-gridline" paint-order="fill stroke markers" d=" M 166.5 0 L 166.5 400" stroke-opacity="0.5" stroke-miterlimit="10" stroke-dasharray=""/><path fill="none" stroke="rgb(0,0,0)" class="dcg-svg-minor-gridline" paint-order="fill stroke markers" d=" M 185.5 0 L 185.5 400" stroke-opacity="0.5" stroke-miterlimit="10" stroke-dasharray=""/><path fill="none" stroke="rgb(0,0,0)" class="dcg-svg-minor-gridline" paint-order="fill stroke markers" d=" M 204.5 0 L 204.5 400" stroke-opacity="0.5" stroke-miterlimit="10" stroke-dasharray=""/><path fill="none" stroke="rgb(0,0,0)" class="dcg-svg-minor-gridline" paint-order="fill stroke markers" d=" M 224.5 0 L 224.5 400" stroke-opacity="0.5" stroke-miterlimit="10" stroke-dasharray=""/><path fill="none" stroke="rgb(0,0,0)" class="dcg-svg-minor-gridline" paint-order="fill stroke markers" d=" M 243.5 0 L 243.5 400" stroke-opacity="0.5" stroke-miterlimit="10" stroke-dasharray=""/><path fill="none" stroke="rgb(0,0,0)" class="dcg-svg-minor-gridline" paint-order="fill stroke markers" d=" M 262.5 0 L 262.5 400" stroke-opacity="0.5" stroke-miterlimit="10" stroke-dasharray=""/><path fill="none" stroke="rgb(0,0,0)" class="dcg-svg-minor-gridline" paint-order="fill stroke markers" d=" M 282.5 0 L 282.5 400" stroke-opacity="0.5" stroke-miterlimit="10" stroke-dasharray=""/><path fill="none" stroke="rgb(0,0,0)" class="dcg-svg-minor-gridline" paint-order="fill stroke markers" d=" M 301.5 0 L 301.5 400" stroke-opacity="0.5" stroke-miterlimit="10" stroke-dasharray=""/><path fill="none" stroke="rgb(0,0,0)" class="dcg-svg-minor-gridline" paint-order="fill stroke markers" d=" M 321.5 0 L 321.5 400" stroke-opacity="0.5" stroke-miterlimit="10" stroke-dasharray=""/><path fill="none" stroke="rgb(0,0,0)" class="dcg-svg-minor-gridline" paint-order="fill stroke markers" d=" M 340.5 0 L 340.5 400" stroke-opacity="0.5" stroke-miterlimit="10" stroke-dasharray=""/><path fill="none" stroke="rgb(0,0,0)" class="dcg-svg-minor-gridline" paint-order="fill stroke markers" d=" M 359.5 0 L 359.5 400" stroke-opacity="0.5" stroke-miterlimit="10" stroke-dasharray=""/><path fill="none" stroke="rgb(0,0,0)" class="dcg-svg-minor-gridline" paint-order="fill stroke markers" d=" M 379.5 0 L 379.5 400" stroke-opacity="0.5" stroke-miterlimit="10" stroke-dasharray=""/><path fill="none" stroke="rgb(0,0,0)" class="dcg-svg-minor-gridline" paint-order="fill stroke markers" d=" M 398.5 0 L 398.5 400" stroke-opacity="0.5" stroke-miterlimit="10" stroke-dasharray=""/><path fill="none" stroke="rgb(0,0,0)" class="dcg-svg-minor-gridline" paint-order="fill stroke markers" d=" M 0 398.5 L 400 398.5" stroke-opacity="0.5" stroke-miterlimit="10" stroke-dasharray=""/><path fill="none" stroke="rgb(0,0,0)" class="dcg-svg-minor-gridline" paint-order="fill stroke markers" d=" M 0 378.5 L 400 378.5" stroke-opacity="0.5" stroke-miterlimit="10" stroke-dasharray=""/><path fill="none" stroke="rgb(0,0,0)" class="dcg-svg-minor-gridline" paint-order="fill stroke markers" d=" M 0 359.5 L 400 359.5" stroke-opacity="0.5" stroke-miterlimit="10" stroke-dasharray=""/><path fill="none" stroke="rgb(0,0,0)" class="dcg-svg-minor-gridline" paint-order="fill stroke markers" d=" M 0 340.5 L 400 340.5" stroke-opacity="0.5" stroke-miterlimit="10" stroke-dasharray=""/><path fill="none" stroke="rgb(0,0,0)" class="dcg-svg-minor-gridline" paint-order="fill stroke markers" d=" M 0 320.5 L 400 320.5" stroke-opacity="0.5" stroke-miterlimit="10" stroke-dasharray=""/><path fill="none" stroke="rgb(0,0,0)" class="dcg-svg-minor-gridline" paint-order="fill stroke markers" d=" M 0 301.5 L 400 301.5" stroke-opacity="0.5" stroke-miterlimit="10" stroke-dasharray=""/><path fill="none" stroke="rgb(0,0,0)" class="dcg-svg-minor-gridline" paint-order="fill stroke markers" d=" M 0 282.5 L 400 282.5" stroke-opacity="0.5" stroke-miterlimit="10" stroke-dasharray=""/><path fill="none" stroke="rgb(0,0,0)" class="dcg-svg-minor-gridline" paint-order="fill stroke markers" d=" M 0 243.5 L 400 243.5" stroke-opacity="0.5" stroke-miterlimit="10" stroke-dasharray=""/><path fill="none" stroke="rgb(0,0,0)" class="dcg-svg-minor-gridline" paint-order="fill stroke markers" d=" M 0 224.5 L 400 224.5" stroke-opacity="0.5" stroke-miterlimit="10" stroke-dasharray=""/><path fill="none" stroke="rgb(0,0,0)" class="dcg-svg-minor-gridline" paint-order="fill stroke markers" d=" M 0 204.5 L 400 204.5" stroke-opacity="0.5" stroke-miterlimit="10" stroke-dasharray=""/><path fill="none" stroke="rgb(0,0,0)" class="dcg-svg-minor-gridline" paint-order="fill stroke markers" d=" M 0 185.5 L 400 185.5" stroke-opacity="0.5" stroke-miterlimit="10" stroke-dasharray=""/><path fill="none" stroke="rgb(0,0,0)" class="dcg-svg-minor-gridline" paint-order="fill stroke markers" d=" M 0 165.5 L 400 165.5" stroke-opacity="0.5" stroke-miterlimit="10" stroke-dasharray=""/><path fill="none" stroke="rgb(0,0,0)" class="dcg-svg-minor-gridline" paint-order="fill stroke markers" d=" M 0 146.5 L 400 146.5" stroke-opacity="0.5" stroke-miterlimit="10" stroke-dasharray=""/><path fill="none" stroke="rgb(0,0,0)" class="dcg-svg-minor-gridline" paint-order="fill stroke markers" d=" M 0 127.5 L 400 127.5" stroke-opacity="0.5" stroke-miterlimit="10" stroke-dasharray=""/><path fill="none" stroke="rgb(0,0,0)" class="dcg-svg-minor-gridline" paint-order="fill stroke markers" d=" M 0 107.5 L 400 107.5" stroke-opacity="0.5" stroke-miterlimit="10" stroke-dasharray=""/><path fill="none" stroke="rgb(0,0,0)" class="dcg-svg-minor-gridline" paint-order="fill stroke markers" d=" M 0 88.5 L 400 88.5" stroke-opacity="0.5" stroke-miterlimit="10" stroke-dasharray=""/><path fill="none" stroke="rgb(0,0,0)" class="dcg-svg-minor-gridline" paint-order="fill stroke markers" d=" M 0 69.5 L 400 69.5" stroke-opacity="0.5" stroke-miterlimit="10" stroke-dasharray=""/><path fill="none" stroke="rgb(0,0,0)" class="dcg-svg-minor-gridline" paint-order="fill stroke markers" d=" M 0 49.5 L 400 49.5" stroke-opacity="0.5" stroke-miterlimit="10" stroke-dasharray=""/><path fill="none" stroke="rgb(0,0,0)" class="dcg-svg-minor-gridline" paint-order="fill stroke markers" d=" M 0 30.5 L 400 30.5" stroke-opacity="0.5" stroke-miterlimit="10" stroke-dasharray=""/><path fill="none" stroke="rgb(0,0,0)" class="dcg-svg-minor-gridline" paint-order="fill stroke markers" d=" M 0 11.5 L 400 11.5" stroke-opacity="0.5" stroke-miterlimit="10" stroke-dasharray=""/><path fill="none" stroke="rgb(0,0,0)" class="dcg-svg-major-gridline" paint-order="fill stroke markers" d=" M 185.5 0 L 185.5 400" stroke-opacity="1" stroke-miterlimit="10" stroke-dasharray=""/><path fill="none" stroke="rgb(0,0,0)" class="dcg-svg-major-gridline" paint-order="fill stroke markers" d=" M 282.5 0 L 282.5 400" stroke-opacity="1" stroke-miterlimit="10" stroke-dasharray=""/><path fill="none" stroke="rgb(0,0,0)" class="dcg-svg-major-gridline" paint-order="fill stroke markers" d=" M 379.5 0 L 379.5 400" stroke-opacity="1" stroke-miterlimit="10" stroke-dasharray=""/><path fill="none" stroke="rgb(0,0,0)" class="dcg-svg-major-gridline" paint-order="fill stroke markers" d=" M 0 359.5 L 400 359.5" stroke-opacity="1" stroke-miterlimit="10" stroke-dasharray=""/><path fill="none" stroke="rgb(0,0,0)" class="dcg-svg-major-gridline" paint-order="fill stroke markers" d=" M 0 165.5 L 400 165.5" stroke-opacity="1" stroke-miterlimit="10" stroke-dasharray=""/><path fill="none" stroke="rgb(0,0,0)" class="dcg-svg-major-gridline" paint-order="fill stroke markers" d=" M 0 69.5 L 400 69.5" stroke-opacity="1" stroke-miterlimit="10" stroke-dasharray=""/></g></g><g id="axis-ec0794c5"><g id="yaxis-ec0794c5"><title>Y axis</title><g><path fill="none" stroke="rgb(0,0,0)" class="dcg-svg-axis-line" paint-order="fill stroke markers" d=" M 89 0 L 89 400" stroke-opacity="0.9" stroke-miterlimit="10" stroke-width="2" stroke-dasharray=""/></g></g><g id="xaxis-ec0794c5"><title>X axis</title><g><path fill="none" stroke="rgb(0,0,0)" class="dcg-svg-axis-line" paint-order="fill stroke markers" d=" M 0 263 L 400 263" stroke-opacity="0.9" stroke-miterlimit="10" stroke-width="2" stroke-dasharray=""/></g></g><g><g class="dcg-svg-axis-value"><text fill="none" stroke="#ffffff" font-family="Arial" font-size="20px" font-style="normal" font-weight="normal" text-decoration="normal" x="78.29777476561601" y="283.1725380308612" text-anchor="middle" stroke-miterlimit="2" stroke-width="3" stroke-dasharray="">0</text><text fill="#000000" stroke="none" font-family="Arial" font-size="20px" font-style="normal" font-weight="normal" text-decoration="normal" x="78.29777476561601" y="283.1725380308612" text-anchor="middle">0</text></g><g class="dcg-svg-axis-value"><text fill="none" stroke="#ffffff" font-family="Arial" font-size="20px" font-style="normal" font-weight="normal" text-decoration="normal" x="185.5940234423308" y="283.1725380308612" text-anchor="middle" stroke-miterlimit="2" stroke-width="3" stroke-dasharray="">1</text><text fill="#000000" stroke="none" font-family="Arial" font-size="20px" font-style="normal" font-weight="normal" text-decoration="normal" x="185.5940234423308" y="283.1725380308612" text-anchor="middle">1</text></g><g class="dcg-svg-axis-value"><text fill="none" stroke="#ffffff" font-family="Arial" font-size="20px" font-style="normal" font-weight="normal" text-decoration="normal" x="282.3287486815456" y="283.1725380308612" text-anchor="middle" stroke-miterlimit="2" stroke-width="3" stroke-dasharray="">2</text><text fill="#000000" stroke="none" font-family="Arial" font-size="20px" font-style="normal" font-weight="normal" text-decoration="normal" x="282.3287486815456" y="283.1725380308612" text-anchor="middle">2</text></g><g class="dcg-svg-axis-value"><text fill="none" stroke="#ffffff" font-family="Arial" font-size="20px" font-style="normal" font-weight="normal" text-decoration="normal" x="379.06347392076043" y="283.1725380308612" text-anchor="middle" stroke-miterlimit="2" stroke-width="3" stroke-dasharray="">3</text><text fill="#000000" stroke="none" font-family="Arial" font-size="20px" font-style="normal" font-weight="normal" text-decoration="normal" x="379.06347392076043" y="283.1725380308612" text-anchor="middle">3</text></g><g class="dcg-svg-axis-value"><text fill="none" stroke="#ffffff" font-family="Arial" font-size="20px" font-style="normal" font-weight="normal" text-decoration="normal" x="74.96769664061601" y="364.907263270076" text-anchor="middle" stroke-miterlimit="2" stroke-width="3" stroke-dasharray="">-1</text><text fill="#000000" stroke="none" font-family="Arial" font-size="20px" font-style="normal" font-weight="normal" text-decoration="normal" x="74.96769664061601" y="364.907263270076" text-anchor="middle">-1</text></g><g class="dcg-svg-axis-value"><text fill="none" stroke="#ffffff" font-family="Arial" font-size="20px" font-style="normal" font-weight="normal" text-decoration="normal" x="78.29777476561601" y="171.43781279164637" text-anchor="middle" stroke-miterlimit="2" stroke-width="3" stroke-dasharray="">1</text><text fill="#000000" stroke="none" font-family="Arial" font-size="20px" font-style="normal" font-weight="normal" text-decoration="normal" x="78.29777476561601" y="171.43781279164637" text-anchor="middle">1</text></g><g class="dcg-svg-axis-value"><text fill="none" stroke="#ffffff" font-family="Arial" font-size="20px" font-style="normal" font-weight="normal" text-decoration="normal" x="78.29777476561601" y="74.70308755243155" text-anchor="middle" stroke-miterlimit="2" stroke-width="3" stroke-dasharray="">2</text><text fill="#000000" stroke="none" font-family="Arial" font-size="20px" font-style="normal" font-weight="normal" text-decoration="normal" x="78.29777476561601" y="74.70308755243155" text-anchor="middle">2</text></g></g></g></g><g id="expressions-ec0794c5"><g id="sketch-ec0794c5"><title>Expression 1</title><path fill="#c74440" stroke="none" paint-order="stroke fill markers" d="" fill-opacity="0.4"/><g><path fill="none" stroke="#c74440" class="dcg-svg-curve" paint-order="fill stroke markers" d=" M 13.019830741675325 -8 L 13.019830741675325 -8 L 15.72265625 5.868804150209883 L 20.800781249999986 30.849237803962467 L 25.78125 54.31352817187732 L 30.664062499999993 76.32201022468979 L 35.44921874999999 96.93383589449343 L 40.13671875000001 116.20697407473995 L 44.72656249999999 134.19821062023902 L 49.21875 150.96314834715875 L 53.61328124999999 166.5562070330251 L 57.91015625 181.03062341672225 L 62.20703125 194.74158553019876 L 66.40625 207.40331027516248 L 70.5078125 219.06666831321394 L 74.51171874999999 229.78134726731162 L 78.41796875 239.59585172177233 L 82.32421875 248.7794022339019 L 86.13281249999999 257.1258736406275 L 89.84375 264.6814044489822 L 93.5546875 271.6674993243831 L 97.16796875 277.9225942259344 L 100.78124999999999 283.6378291605787 L 104.29687499999999 288.6804273610391 L 107.8125 293.21195286821137 L 111.23046875 297.1276274960095 L 114.453125 300.3770928358738 L 117.48046875 303.03842943816767 L 120.41015625 305.253089686875 L 123.2421875 307.0565647412519 L 125.9765625 308.48316272191266 L 128.61328125 309.56600871082964 L 131.25 310.361376309772 L 133.7890625 310.85558130807794 L 136.328125 311.083208265749 L 138.8671875 311.04425718278515 L 141.40625 310.7387280591864 L 143.9453125 310.16662089495276 L 146.484375 309.32793569008425 L 149.12109375 308.1748386458653 L 151.7578125 306.7342632116718 L 154.4921875 304.93668654702054 L 157.32421874999997 302.74898356993924 L 160.25390624999997 300.1368461598135 L 163.37890625 296.9593748114341 L 166.6015625 293.25967116894907 L 170.01953125 288.8664710686743 L 173.53515625 283.84377650409755 L 177.05078125 278.31000924623265 L 180.6640625 272.08996166925596 L 184.27734375 265.3300541253722 L 187.98828125 257.8255030227111 L 191.69921875 249.75151598709607 L 195.5078125 240.87294476818218 L 199.31640625 231.39457295783978 L 203.22265625 221.05009895482124 L 207.2265625 209.7922012134518 L 211.328125 197.5723751494146 L 215.4296875 184.6569223639574 L 219.62890625 170.71329109188775 L 223.92578125 155.69061067160516 L 228.3203125 139.5368274028674 L 232.8125 122.1987045467902 L 237.40234375 103.62182232584763 L 242.08984375 83.75057792387156 L 246.77734375 62.97075984493878 L 251.5625 40.82086511189269 L 256.4453125 17.242924831281897 L 261.42578125 -7.8222129289869144 L 261.4597058792402 -8" stroke-linecap="round" stroke-linejoin="round" stroke-miterlimit="10" stroke-width="5" stroke-opacity="0.9" stroke-dasharray=""/></g></g><g id="sketch-ec0794c5"><title>Expression 2</title><path fill="#2d70b3" stroke="none" paint-order="stroke fill markers" d="" fill-opacity="0.4"/><g><path fill="none" stroke="#2d70b3" class="dcg-svg-curve" paint-order="fill stroke markers" d=" M 49.48626919814657 -8 L 49.48626919814657 -8 L 51.5625 23.639738794674713 L 53.90624999999999 56.41696630362134 L 56.15234374999999 85.16204792153854 L 58.3984375 111.38588447088836 L 60.546875 134.19075599913117 L 62.597656249999986 153.95168067406695 L 64.6484375 171.8193427310047 L 66.6015625 187.13670625835277 L 68.45703124999999 200.2055713124169 L 70.3125 211.87983509929893 L 72.0703125 221.69777413692543 L 73.82812499999999 230.349953110637 L 75.48828125 237.4887055930427 L 77.05078125 243.3232347638409 L 78.61328125 248.3302269241495 L 80.078125 252.2988119906119 L 81.4453125 255.39122354654705 L 82.8125 257.913254891633 L 84.1796875 259.88456912318753 L 85.44921874999999 261.2391458917629 L 86.62109374999999 262.0967206758167 L 87.6953125 262.56244414354234 L 88.76953125 262.7315374904408 L 89.84375 262.61353846524736 L 90.91796875 262.21798481669754 L 92.08984374999999 261.4811292367371 L 93.359375 260.3372905688438 L 94.82421875 258.5909474089599 L 96.484375 256.08853815569114 L 98.14453124999999 253.06403250159417 L 100 249.10915454574686 L 101.953125 244.34310608160732 L 104.1015625 238.45342315442417 L 106.4453125 231.34226226361028 L 109.08203124999999 222.60655832812208 L 112.10937499999999 211.79219731310977 L 115.8203125 197.69251051929294 L 121.58203124999999 174.83495696215007 L 128.02734375 149.4790922208897 L 131.640625 136.10045658211737 L 134.66796875 125.69111832838058 L 137.3046875 117.3967483694644 L 139.6484375 110.74711320578473 L 141.69921875 105.56824837320545 L 143.65234375 101.25462006869347 L 145.41015624999997 97.93657499088764 L 147.0703125 95.33275525477305 L 148.6328125 93.38448300250116 L 150 92.10294217496488 L 151.26953124999997 91.2846377853258 L 152.34375 90.88377526450779 L 153.41796875 90.7602816831197 L 154.39453124999997 90.89673259983289 L 155.37109375 91.27746233376402 L 156.4453125 91.986959519089 L 157.6171875 93.11915748397115 L 158.88671875 94.78147338778024 L 160.25390624999997 97.0960980744145 L 161.62109375 99.97377965987201 L 162.98828125 103.43418124147001 L 164.453125 107.81073471961736 L 165.91796875 112.90298415178839 L 167.48046875 119.15082221006577 L 169.04296875 126.26983142029977 L 170.703125 134.8211540097683 L 172.4609375 145.0226858972896 L 174.21875 156.4452023090202 L 176.07421875 169.87309837904132 L 177.9296875 184.75712667354753 L 179.8828125 202.05166223612068 L 181.93359375 222.0687318749724 L 183.984375 244.05423075833417 L 186.1328125 269.2702294943612 L 188.28125 296.79572619263166 L 190.52734375 328.1245507412207 L 192.87109375 363.68994775750764 L 195.21484375 402.28863783009285 L 195.5351006839201 408" stroke-linecap="round" stroke-linejoin="round" stroke-miterlimit="10" stroke-width="5" stroke-opacity="0.9" stroke-dasharray=""/></g></g></g><g id="labels-ec0794c5"/></g></svg>